<svg width="33" height="32" viewBox="0 0 33 32" fill="none" xmlns="http://www.w3.org/2000/svg">
<path fill-rule="evenodd" clip-rule="evenodd" d="M24.2028 11.2817H21.238C20.4445 11.2817 19.9671 12.1614 20.3995 12.8267L25.0569 19.9918C25.4512 20.5985 26.3394 20.5985 26.7337 19.9918L31.3911 12.8267C31.8235 12.1614 31.3461 11.2817 30.5526 11.2817H27.2947C26.9538 10.4065 26.5174 9.56643 25.9903 8.77753C24.5618 6.63969 22.5315 4.97345 20.156 3.98951C17.7806 3.00557 15.1667 2.74813 12.645 3.24974C10.1232 3.75135 7.80685 4.98948 5.98877 6.80756C4.17069 8.62564 2.93256 10.942 2.43095 13.4638C1.92934 15.9855 2.18679 18.5994 3.17072 20.9748C4.15466 23.3503 5.82091 25.3806 7.95875 26.8091C9.70452 27.9755 11.7008 28.6979 13.7744 28.9236C14.5483 29.0079 15.1812 28.3689 15.1812 27.5904C15.1812 26.812 14.5471 26.1909 13.7761 26.0835C12.2611 25.8724 10.8068 25.3216 9.52492 24.4651C7.85067 23.3464 6.54575 21.7564 5.77518 19.896C5.00461 18.0357 4.80299 15.9887 5.19582 14.0137C5.58866 12.0388 6.5583 10.2248 7.98213 8.80092C9.40597 7.37709 11.22 6.40745 13.195 6.01461C15.1699 5.62178 17.2169 5.82339 19.0772 6.59397C20.9376 7.36454 22.5276 8.66946 23.6463 10.3437C23.8491 10.6472 24.0347 10.9604 24.2028 11.2817Z" fill="#2754C8"/>
</svg>
