<svg width="56" height="56" viewBox="0 0 56 56" fill="none" xmlns="http://www.w3.org/2000/svg">
<rect width="56" height="56" rx="16" fill="url(#paint0_linear_4_468)"/>
<path d="M31.2556 44.7999H30.7919C29.988 44.7999 29.2151 44.7228 28.473 44.5685C27.731 44.4143 27.0663 44.1366 26.4788 43.7355C25.9223 43.3344 25.4586 42.779 25.0875 42.0694C24.7474 41.3597 24.5774 40.4341 24.5774 39.2925V11.2H25.3194C26.0614 11.2 26.788 11.2925 27.4991 11.4776C28.2102 11.6319 28.844 11.925 29.4006 12.357C29.9571 12.7581 30.4054 13.3134 30.7455 14.0231C31.0856 14.7327 31.2556 15.6429 31.2556 16.7537V44.7999ZM14.5601 15.7818C14.5601 15.2572 14.6528 14.7327 14.8383 14.2082C15.0238 13.6837 15.3175 13.2055 15.7195 12.7735C16.1214 12.3415 16.6161 12.0022 17.2035 11.7553C17.791 11.4776 18.4866 11.3388 19.2905 11.3388C20.1252 11.3388 20.8364 11.4931 21.4238 11.8016C22.0112 12.0793 22.475 12.4341 22.8151 12.8661C23.1861 13.2672 23.4489 13.7146 23.6035 14.2082C23.789 14.671 23.8817 15.0876 23.8817 15.4578C23.8817 15.7046 23.8663 15.936 23.8354 16.152C23.8354 16.3371 23.789 16.5531 23.6962 16.8C23.2634 16.4297 22.7687 16.2446 22.2122 16.2446C21.7484 16.2446 21.362 16.3988 21.0528 16.7074C20.7436 16.9851 20.589 17.417 20.589 18.0033V20.271C20.3417 20.3327 20.0325 20.3636 19.6615 20.3636C19.2286 20.3636 18.7185 20.3173 18.1311 20.2247C17.5436 20.1013 16.9871 19.8699 16.4615 19.5305C15.9359 19.1911 15.4876 18.7283 15.1166 18.1421C14.7456 17.5559 14.5601 16.7691 14.5601 15.7818ZM41.3193 15.7818C41.3193 16.7691 41.1338 17.5559 40.7628 18.1421C40.3918 18.7283 39.9435 19.1911 39.4179 19.5305C38.8923 19.8699 38.3358 20.1013 37.7483 20.2247C37.1609 20.3173 36.6508 20.3636 36.2179 20.3636C35.8469 20.3636 35.5377 20.3327 35.2904 20.271V18.1421C35.2904 17.4942 35.1358 17.0159 34.8266 16.7074C34.5174 16.3988 34.131 16.2446 33.6672 16.2446C33.0798 16.2446 32.5851 16.4297 32.1832 16.8C32.0904 16.5531 32.0286 16.3371 31.9976 16.152C31.9976 15.936 31.9976 15.7046 31.9976 15.4578C31.9976 15.0876 32.0749 14.671 32.2295 14.2082C32.415 13.7146 32.6778 13.2672 33.0179 12.8661C33.3889 12.4341 33.8527 12.0793 34.4092 11.8016C34.9967 11.4931 35.6923 11.3388 36.4962 11.3388C37.3309 11.3388 38.0421 11.4776 38.6295 11.7553C39.2478 12.033 39.7425 12.3878 40.1135 12.8198C40.5155 13.2209 40.8092 13.6991 40.9947 14.2545C41.2111 14.779 41.3193 15.2881 41.3193 15.7818Z" fill="white"/>
<defs>
<linearGradient id="paint0_linear_4_468" x1="1.73416e-06" y1="43.3901" x2="72.4497" y2="29.3573" gradientUnits="userSpaceOnUse">
<stop stop-color="#2754C8"/>
<stop offset="1" stop-color="#110F72"/>
</linearGradient>
</defs>
</svg>
