<svg width="20" height="20" viewBox="0 0 20 20" fill="none" xmlns="http://www.w3.org/2000/svg">
<path fill-rule="evenodd" clip-rule="evenodd" d="M0.25 4.25C0.25 2.04086 2.04086 0.25 4.25 0.25H15.75C17.9591 0.25 19.75 2.04086 19.75 4.25V15.75C19.75 17.9591 17.9591 19.75 15.75 19.75H4.25C2.04086 19.75 0.25 17.9591 0.25 15.75V4.25ZM15.5082 5.47604C15.9357 5.82577 15.9987 6.45579 15.649 6.88324L10.4327 13.2586C9.23939 14.7172 7.01261 14.7272 5.80619 13.2795L3.60678 10.6402C3.25321 10.2159 3.31054 9.58534 3.73482 9.23178C4.15909 8.87821 4.78966 8.93554 5.14322 9.35982L7.34263 11.9991C7.74477 12.4817 8.48703 12.4783 8.88481 11.9922L14.101 5.61676C14.4508 5.18932 15.0808 5.12632 15.5082 5.47604Z" fill="url(#paint0_linear_520_881)"/>
<defs>
<linearGradient id="paint0_linear_520_881" x1="0.250001" y1="15.359" x2="25.478" y2="10.4726" gradientUnits="userSpaceOnUse">
<stop stop-color="#2754C8"/>
<stop offset="1" stop-color="#110F72"/>
</linearGradient>
</defs>
</svg>
