<svg width="27" height="16" viewBox="0 0 27 16" fill="none" xmlns="http://www.w3.org/2000/svg">
<path fill-rule="evenodd" clip-rule="evenodd" d="M24.7333 8C24.7333 9.05329 23.9769 10.3879 21.9263 11.5709C19.9287 12.7234 17.0364 13.5 13.7333 13.5C17.4404 13.5 19.7333 10.6922 19.7333 8C19.7333 5.30778 17.4404 2.5 13.7333 2.5C17.0364 2.5 19.9287 3.27665 21.9263 4.42907C23.9769 5.61209 24.7333 6.94671 24.7333 8ZM5.54039 4.42907C7.53793 3.27665 10.4302 2.5 13.7333 2.5C10.0262 2.5 7.73334 5.30778 7.73334 8C7.73334 10.6922 10.0262 13.5 13.7333 13.5C10.4302 13.5 7.53793 12.7234 5.54039 11.5709C3.48982 10.3879 2.73334 9.05329 2.73334 8C2.73334 6.94671 3.48982 5.61209 5.54039 4.42907ZM26.7333 8C26.7333 12.1421 20.913 15.5 13.7333 15.5C6.55364 15.5 0.733337 12.1421 0.733337 8C0.733337 3.85786 6.55364 0.5 13.7333 0.5C20.913 0.5 26.7333 3.85786 26.7333 8ZM17.7333 8C17.7333 10.1697 15.9425 11.9286 13.7333 11.9286C11.5242 11.9286 9.73334 10.1697 9.73334 8C9.73334 5.83031 11.5242 4.07143 13.7333 4.07143C15.9425 4.07143 17.7333 5.83031 17.7333 8Z" fill="#989898"/>
</svg>
