<svg width="33" height="32" viewBox="0 0 33 32" fill="none" xmlns="http://www.w3.org/2000/svg">
<path d="M15.4076 3.72547L14.637 3.08821V3.08821L15.4076 3.72547ZM18.4902 3.72547L17.7195 4.36274V4.36274L18.4902 3.72547ZM5.28137 15.9711L6.05201 16.6084L5.28137 15.9711ZM28.6164 15.9712L29.3871 15.3339L28.6164 15.9712ZM16.1782 4.36273C16.5782 3.87909 17.3196 3.87909 17.7195 4.36274L19.2608 3.08821C18.061 1.63727 15.8368 1.63726 14.637 3.08821L16.1782 4.36273ZM6.05201 16.6084L16.1782 4.36273L14.637 3.08821L4.51072 15.3339L6.05201 16.6084ZM6.82266 18.2457C5.9766 18.2457 5.51285 17.2604 6.05201 16.6084L4.51072 15.3339C2.89322 17.2899 4.28447 20.2457 6.82266 20.2457V18.2457ZM9.59994 18.2457H6.82266V20.2457H9.59994V18.2457ZM12.5999 26.9407V21.2457H10.5999V26.9407H12.5999ZM20.2978 27.9407H13.5999V29.9407H20.2978V27.9407ZM21.2978 21.2457V26.9407H23.2978V21.2457H21.2978ZM27.0751 18.2457H24.2978V20.2457H27.0751V18.2457ZM27.8458 16.6084C28.3849 17.2604 27.9212 18.2457 27.0751 18.2457V20.2457C29.6133 20.2457 31.0046 17.2899 29.3871 15.3339L27.8458 16.6084ZM17.7195 4.36274L27.8458 16.6084L29.3871 15.3339L19.2608 3.08821L17.7195 4.36274ZM23.2978 21.2457C23.2978 20.6934 23.7456 20.2457 24.2978 20.2457V18.2457C22.641 18.2457 21.2978 19.5888 21.2978 21.2457H23.2978ZM20.2978 29.9407C21.9547 29.9407 23.2978 28.5975 23.2978 26.9407H21.2978C21.2978 27.4929 20.8501 27.9407 20.2978 27.9407V29.9407ZM10.5999 26.9407C10.5999 28.5975 11.9431 29.9407 13.5999 29.9407V27.9407C13.0477 27.9407 12.5999 27.4929 12.5999 26.9407H10.5999ZM9.59994 20.2457C10.1522 20.2457 10.5999 20.6934 10.5999 21.2457H12.5999C12.5999 19.5888 11.2568 18.2457 9.59994 18.2457V20.2457Z" fill="#989898"/>
</svg>
