<svg width="33" height="32" viewBox="0 0 33 32" fill="none" xmlns="http://www.w3.org/2000/svg">
<path fill-rule="evenodd" clip-rule="evenodd" d="M25.7333 13C25.7333 13.5759 25.6792 14.1392 25.5759 14.685C28.7234 16.0603 30.7333 18.1544 30.7333 20.5C30.7333 24.6421 24.4653 28 16.7333 28C9.00135 28 2.73334 24.6421 2.73334 20.5C2.73334 18.1544 4.74328 16.0603 7.89082 14.685C7.78743 14.1392 7.73334 13.5759 7.73334 13C7.73334 8.02944 11.7628 4 16.7333 4C21.7039 4 25.7333 8.02944 25.7333 13ZM16.3187 24.8672L9.48806 16.6068H13.7769V12H18.8602V16.6068H23.1494L16.3187 24.8672Z" fill="#D9D9D9"/>
</svg>
