<svg width="33" height="32" viewBox="0 0 33 32" fill="none" xmlns="http://www.w3.org/2000/svg">
<path fill-rule="evenodd" clip-rule="evenodd" d="M16.7333 29C23.913 29 29.7333 23.1797 29.7333 16C29.7333 8.8203 23.913 3 16.7333 3C9.55364 3 3.73334 8.8203 3.73334 16C3.73334 23.1797 9.55364 29 16.7333 29ZM14.9988 18.8696V19.1284H17.8837V18.8696C17.8887 18.3723 17.9522 17.9537 18.074 17.6137C18.2008 17.2737 18.3911 16.9743 18.6449 16.7155C18.9037 16.4567 19.2335 16.2081 19.6344 15.9696C20.1114 15.6854 20.525 15.3682 20.8751 15.0181C21.2253 14.6629 21.4967 14.2569 21.6896 13.8002C21.8875 13.3384 21.9864 12.8107 21.9864 12.2169C21.9864 11.3289 21.7657 10.5703 21.3242 9.94101C20.8827 9.31177 20.2738 8.83222 19.4974 8.50238C18.721 8.16746 17.8279 8 16.818 8C15.8995 8 15.0597 8.16492 14.2985 8.49477C13.5373 8.81954 12.9259 9.3143 12.4641 9.97907C12.0023 10.6388 11.7587 11.4761 11.7333 12.491H14.839C14.8542 12.0749 14.9557 11.7272 15.1434 11.4481C15.3312 11.164 15.5722 10.9508 15.8665 10.8088C16.1609 10.6616 16.473 10.588 16.8028 10.588C17.1428 10.588 17.4523 10.6591 17.7314 10.8011C18.0156 10.9432 18.2414 11.1462 18.4089 11.4101C18.5763 11.674 18.6601 11.981 18.6601 12.3311C18.6601 12.661 18.5865 12.9604 18.4393 13.2293C18.2922 13.4932 18.0943 13.7342 17.8456 13.9524C17.597 14.1706 17.3153 14.3812 17.0007 14.5842C16.5795 14.8481 16.2192 15.1424 15.9198 15.4672C15.6204 15.7919 15.3921 16.2182 15.2348 16.746C15.0825 17.2737 15.0039 17.9816 14.9988 18.8696ZM15.2043 23.4672C15.5646 23.8224 15.9985 24 16.5059 24C16.8307 24 17.1301 23.9188 17.4041 23.7564C17.6782 23.589 17.8989 23.3682 18.0664 23.0942C18.2389 22.8151 18.3277 22.5081 18.3328 22.1732C18.3277 21.6759 18.1425 21.2496 17.7771 20.8944C17.4117 20.5392 16.988 20.3616 16.5059 20.3616C15.9985 20.3616 15.5646 20.5392 15.2043 20.8944C14.8491 21.2496 14.674 21.6759 14.6791 22.1732C14.674 22.6755 14.8491 23.1069 15.2043 23.4672Z" fill="#989898"/>
</svg>
