<svg width="33" height="32" viewBox="0 0 33 32" fill="none" xmlns="http://www.w3.org/2000/svg">
<path fill-rule="evenodd" clip-rule="evenodd" d="M20.1 3.13547C19.4333 2.75057 18.6 3.23169 18.6 4.00149V7.63411C18.6 8.18639 18.1523 8.63411 17.6 8.63411H6.26666C5.71438 8.63411 5.26666 9.08182 5.26666 9.63411V10.3008C5.26666 10.8531 5.71437 11.3008 6.26666 11.3008H17.6C18.1523 11.3008 18.6 11.7485 18.6 12.3008V15.9334C18.6 16.7032 19.4333 17.1843 20.1 16.7994L30.4333 10.8335C31.1 10.4486 31.1 9.48632 30.4333 9.10142L20.1 3.13547ZM13.1 16.1667C13.7667 15.7818 14.6 16.2629 14.6 17.0327V20.6654C14.6 21.2176 15.0477 21.6654 15.6 21.6654H26.9333C27.4856 21.6654 27.9333 22.1131 27.9333 22.6654V23.332C27.9333 23.8843 27.4856 24.332 26.9333 24.332H15.6C15.0477 24.332 14.6 24.7797 14.6 25.332V28.9646C14.6 29.7344 13.7667 30.2156 13.1 29.8307L2.76666 23.8647C2.1 23.4798 2.1 22.5176 2.76666 22.1327L13.1 16.1667Z" fill="black"/>
</svg>
