<svg width="33" height="32" viewBox="0 0 33 32" fill="none" xmlns="http://www.w3.org/2000/svg">
<rect x="2.81885" y="2" width="28" height="28" rx="2" stroke="#989898" stroke-width="2"/>
<path d="M18.7567 26H18.4806C18.0021 26 17.5421 25.9541 17.1004 25.8623C16.6587 25.7704 16.263 25.6051 15.9134 25.3664C15.5821 25.1276 15.306 24.7971 15.0852 24.3747C14.8828 23.9522 14.7815 23.4013 14.7815 22.7218V6H15.2232C15.6649 6 16.0974 6.0551 16.5207 6.16529C16.9439 6.25712 17.3212 6.43159 17.6525 6.6887C17.9837 6.92746 18.2506 7.25803 18.453 7.68044C18.6555 8.10285 18.7567 8.64463 18.7567 9.30579V26ZM8.81885 8.72727C8.81885 8.41506 8.87406 8.10285 8.98448 7.79063C9.0949 7.47842 9.26973 7.19376 9.50898 6.93664C9.74822 6.67952 10.0427 6.4775 10.3923 6.33058C10.742 6.16529 11.1561 6.08264 11.6346 6.08264C12.1315 6.08264 12.5547 6.17447 12.9044 6.35813C13.2541 6.52341 13.5301 6.73462 13.7326 6.99173C13.9534 7.23049 14.1098 7.49679 14.2018 7.79063C14.3123 8.06612 14.3675 8.31405 14.3675 8.53444C14.3675 8.68136 14.3583 8.8191 14.3399 8.94766C14.3399 9.05785 14.3123 9.18641 14.2571 9.33333C13.9994 9.11295 13.705 9.00275 13.3737 9.00275C13.0976 9.00275 12.8676 9.09458 12.6836 9.27824C12.4995 9.44352 12.4075 9.70064 12.4075 10.0496V11.3994C12.2603 11.4362 12.0762 11.4545 11.8554 11.4545C11.5978 11.4545 11.2941 11.427 10.9444 11.3719C10.5948 11.2984 10.2635 11.1607 9.95066 10.9587C9.6378 10.7567 9.37095 10.4812 9.15011 10.1322C8.92927 9.78329 8.81885 9.31497 8.81885 8.72727ZM24.747 8.72727C24.747 9.31497 24.6366 9.78329 24.4157 10.1322C24.1949 10.4812 23.928 10.7567 23.6152 10.9587C23.3023 11.1607 22.9711 11.2984 22.6214 11.3719C22.2717 11.427 21.9681 11.4545 21.7104 11.4545C21.4896 11.4545 21.3056 11.4362 21.1583 11.3994V10.1322C21.1583 9.74656 21.0663 9.46189 20.8823 9.27824C20.6982 9.09458 20.4682 9.00275 20.1922 9.00275C19.8425 9.00275 19.548 9.11295 19.3088 9.33333C19.2536 9.18641 19.2168 9.05785 19.1984 8.94766C19.1984 8.8191 19.1984 8.68136 19.1984 8.53444C19.1984 8.31405 19.2444 8.06612 19.3364 7.79063C19.4468 7.49679 19.6032 7.23049 19.8057 6.99173C20.0265 6.73462 20.3026 6.52341 20.6338 6.35813C20.9835 6.17447 21.3976 6.08264 21.8761 6.08264C22.373 6.08264 22.7962 6.16529 23.1459 6.33058C23.514 6.49587 23.8084 6.70707 24.0293 6.96419C24.2685 7.20294 24.4433 7.4876 24.5538 7.81818C24.6826 8.13039 24.747 8.43342 24.747 8.72727Z" fill="#989898"/>
</svg>
