<svg width="25" height="28" viewBox="0 0 25 28" fill="none" xmlns="http://www.w3.org/2000/svg">
<path fill-rule="evenodd" clip-rule="evenodd" d="M5.47607 15.2194C5.94026 15.2194 6.31655 14.8431 6.31655 14.3789C6.31655 13.9147 5.94026 13.5384 5.47607 13.5384H4.36542C3.28784 13.5384 2.41429 12.6649 2.41429 11.5873L2.41429 3.77177C2.41429 2.6672 3.30972 1.77177 4.41429 1.77177L20.5857 1.77177C21.6903 1.77177 22.5857 2.6672 22.5857 3.77177V11.5384C22.5857 12.643 21.6903 13.5384 20.5857 13.5384H18.3721C17.9079 13.5384 17.5316 13.9147 17.5316 14.3789C17.5316 14.8431 17.9079 15.2194 18.3721 15.2194H22.5857C23.5141 15.2194 24.2667 14.4668 24.2667 13.5384V1.77177C24.2667 0.843407 23.5141 0.0908203 22.5857 0.0908203L2.41429 0.0908203C1.48593 0.0908203 0.733337 0.843407 0.733337 1.77177L0.733337 13.5384C0.733337 14.4668 1.48593 15.2194 2.41429 15.2194H5.47607ZM13.4746 27.1837C12.6748 28.151 11.1919 28.151 10.3921 27.1837L4.62314 20.2073C3.54481 18.9033 4.47231 16.9328 6.16443 16.9328H7.20545C7.75774 16.9328 8.20545 16.4851 8.20545 15.9328V11.1765C8.20545 10.6242 8.65317 10.1765 9.20545 10.1765H14.6607C15.213 10.1765 15.6607 10.6242 15.6607 11.1765L15.6607 15.9328C15.6607 16.4851 16.1084 16.9328 16.6607 16.9328H17.7023C19.3944 16.9328 20.3219 18.9033 19.2436 20.2073L13.4746 27.1837Z" fill="black"/>
</svg>
