<svg width="33" height="32" viewBox="0 0 33 32" fill="none" xmlns="http://www.w3.org/2000/svg">
<path d="M26.225 11.4417L26.9018 12.1778L26.9018 12.1778L26.225 11.4417ZM25.4127 10.5583L26.0896 11.2944H26.0896L25.4127 10.5583ZM19.8535 15.6703L19.1766 14.9342L19.1766 14.9342L19.8535 15.6703ZM17.7548 15.4367L18.577 14.8675V14.8675L17.7548 15.4367ZM17.3383 14.8351L16.5161 15.4043L17.3383 14.8351ZM13.4872 14.3595L12.8282 13.6074V13.6074L13.4872 14.3595ZM6.42344 20.5487L7.08245 21.3009L7.08245 21.3009L6.42344 20.5487ZM6.36757 21.3954L5.61543 22.0544L5.61544 22.0544L6.36757 21.3954ZM7.21425 21.4513L6.55524 20.6991L6.55524 20.6991L7.21425 21.4513ZM14.278 15.2621L14.937 16.0142L14.937 16.0142L14.278 15.2621ZM16.3517 15.5182L15.5295 16.0874L16.3517 15.5182ZM16.7681 16.1197L17.5903 15.5505L16.7681 16.1197ZM20.6657 16.5536L19.9888 15.8175L20.6657 16.5536ZM3.81885 4C3.81885 3.44772 4.26656 3 4.81885 3V1C3.16199 1 1.81885 2.34315 1.81885 4H3.81885ZM3.81885 28V4H1.81885V28H3.81885ZM4.81885 29C4.26656 29 3.81885 28.5523 3.81885 28H1.81885C1.81885 29.6569 3.16199 31 4.81885 31V29ZM28.8188 29H4.81885V31H28.8188V29ZM29.8188 28C29.8188 28.5523 29.3711 29 28.8188 29V31C30.4757 31 31.8188 29.6569 31.8188 28H29.8188ZM29.8188 4V28H31.8188V4H29.8188ZM28.8188 3C29.3711 3 29.8188 3.44772 29.8188 4H31.8188C31.8188 2.34315 30.4757 1 28.8188 1V3ZM4.81885 3H28.8188V1H4.81885V3ZM25.5244 11.2707C25.3749 11.1081 25.3855 10.8551 25.5481 10.7056L26.9018 12.1778C27.5523 11.5796 27.5947 10.5675 26.9966 9.917L25.5244 11.2707ZM26.0896 11.2944C25.927 11.444 25.6739 11.4334 25.5244 11.2707L26.9966 9.917C26.3985 9.26654 25.3863 9.22412 24.7358 9.82224L26.0896 11.2944ZM20.5303 16.4064L26.0896 11.2944L24.7359 9.82224L19.1766 14.9342L20.5303 16.4064ZM16.9326 16.0059C17.7617 17.2036 19.458 17.3924 20.5303 16.4064L19.1766 14.9342C18.9979 15.0985 18.7151 15.0671 18.577 14.8675L16.9326 16.0059ZM16.5161 15.4043L16.9326 16.0059L18.577 14.8675L18.1605 14.2659L16.5161 15.4043ZM14.1462 15.1117C14.865 14.4818 15.9721 14.6186 16.5161 15.4043L18.1605 14.2659C16.9365 12.4979 14.4456 12.1903 12.8282 13.6074L14.1462 15.1117ZM7.08245 21.3009L14.1462 15.1117L12.8282 13.6074L5.76443 19.7966L7.08245 21.3009ZM7.1197 20.7364C7.26528 20.9026 7.24861 21.1553 7.08245 21.3009L5.76443 19.7966C5.0998 20.3789 5.0331 21.3898 5.61543 22.0544L7.1197 20.7364ZM6.55524 20.6991C6.7214 20.5536 6.97411 20.5702 7.1197 20.7364L5.61544 22.0544C6.19778 22.719 7.20864 22.7858 7.87327 22.2034L6.55524 20.6991ZM13.619 14.51L6.55524 20.6991L7.87327 22.2034L14.937 16.0142L13.619 14.51ZM17.1739 14.949C16.3579 13.7703 14.6972 13.5652 13.619 14.51L14.937 16.0142C15.1167 15.8568 15.3935 15.8909 15.5295 16.0874L17.1739 14.949ZM17.5903 15.5505L17.1739 14.949L15.5295 16.0874L15.9459 16.6889L17.5903 15.5505ZM19.9888 15.8175C19.274 16.4749 18.1431 16.349 17.5903 15.5505L15.9459 16.6889C17.1897 18.4855 19.7341 18.7688 21.3426 17.2897L19.9888 15.8175ZM25.5481 10.7056L19.9888 15.8175L21.3426 17.2897L26.9018 12.1778L25.5481 10.7056Z" fill="#989898"/>
</svg>
