<svg width="33" height="32" viewBox="0 0 33 32" fill="none" xmlns="http://www.w3.org/2000/svg">
<path fill-rule="evenodd" clip-rule="evenodd" d="M2.73334 6C2.73334 5.44772 3.18105 5 3.73334 5H29.7333C30.2856 5 30.7333 5.44772 30.7333 6C30.7333 6.55228 30.2856 7 29.7333 7H3.73334C3.18105 7 2.73334 6.55228 2.73334 6ZM7.73334 16C7.73334 15.4477 8.18105 15 8.73334 15H24.7333C25.2856 15 25.7333 15.4477 25.7333 16C25.7333 16.5523 25.2856 17 24.7333 17H8.73334C8.18105 17 7.73334 16.5523 7.73334 16ZM13.7333 25C13.1811 25 12.7333 25.4477 12.7333 26C12.7333 26.5523 13.1811 27 13.7333 27H19.7333C20.2856 27 20.7333 26.5523 20.7333 26C20.7333 25.4477 20.2856 25 19.7333 25H13.7333Z" fill="#D9D9D9"/>
</svg>
