<svg width="33" height="32" viewBox="0 0 33 32" fill="none" xmlns="http://www.w3.org/2000/svg">
<mask id="path-1-inside-1_6_12506" fill="white">
<path fill-rule="evenodd" clip-rule="evenodd" d="M17.1733 2C12.8434 2 9.33334 5.51009 9.33334 9.84C9.33334 11.7123 8.30335 13.3934 7.01634 14.7532C4.98134 16.9034 3.73334 19.8061 3.73334 23.0003C3.73334 25.2095 5.5242 27.0003 7.73334 27.0003H26.6133C28.8225 27.0003 30.6133 25.2095 30.6133 23.0003C30.6133 19.8061 29.3653 16.9034 27.3303 14.7532C26.0433 13.3934 25.0133 11.7123 25.0133 9.84C25.0133 5.51009 21.5032 2 17.1733 2Z"/>
</mask>
<path d="M11.3333 9.84C11.3333 6.61466 13.948 4 17.1733 4V0C11.7389 0 7.33334 4.40552 7.33334 9.84H11.3333ZM5.73334 23.0003C5.73334 20.3376 6.77142 17.9216 8.46894 16.128L5.56375 13.3785C3.19127 15.8853 1.73334 19.2747 1.73334 23.0003H5.73334ZM7.73334 25.0003C6.62877 25.0003 5.73334 24.1049 5.73334 23.0003H1.73334C1.73334 26.314 4.41963 29.0003 7.73334 29.0003V25.0003ZM26.6133 25.0003H7.73334V29.0003H26.6133V25.0003ZM28.6133 23.0003C28.6133 24.1049 27.7179 25.0003 26.6133 25.0003V29.0003C29.927 29.0003 32.6133 26.314 32.6133 23.0003H28.6133ZM25.8777 16.128C27.5753 17.9216 28.6133 20.3376 28.6133 23.0003H32.6133C32.6133 19.2747 31.1554 15.8853 28.7829 13.3785L25.8777 16.128ZM17.1733 4C20.3987 4 23.0133 6.61466 23.0133 9.84H27.0133C27.0133 4.40552 22.6078 0 17.1733 0V4ZM28.7829 13.3785C27.6483 12.1796 27.0133 10.9705 27.0133 9.84H23.0133C23.0133 12.4541 24.4384 14.6071 25.8777 16.128L28.7829 13.3785ZM7.33334 9.84C7.33334 10.9705 6.69841 12.1796 5.56375 13.3785L8.46894 16.128C9.9083 14.6071 11.3333 12.4541 11.3333 9.84H7.33334Z" fill="#989898" mask="url(#path-1-inside-1_6_12506)"/>
<path d="M11.7333 28H21.7333C21.7333 29.6569 20.3902 31 18.7333 31H14.7333C13.0765 31 11.7333 29.6569 11.7333 28Z" fill="#989898"/>
</svg>
