<svg width="33" height="32" viewBox="0 0 33 32" fill="none" xmlns="http://www.w3.org/2000/svg">
<path fill-rule="evenodd" clip-rule="evenodd" d="M4.81885 2C3.71428 2 2.81885 2.89543 2.81885 4V28C2.81885 29.1046 3.71428 30 4.81885 30H28.8188C29.9234 30 30.8188 29.1046 30.8188 28V4C30.8188 2.89543 29.9234 2 28.8188 2H4.81885ZM26.8342 12.1041C27.444 11.5434 27.4837 10.5945 26.923 9.98469C26.3623 9.37489 25.4133 9.33511 24.8035 9.89585L19.2443 15.0078C19.0209 15.2132 18.6675 15.1739 18.4947 14.9244L18.0783 14.3228C16.8883 12.6039 14.4665 12.3048 12.8941 13.6826L5.83033 19.8718C5.20724 20.4177 5.14471 21.3654 5.69065 21.9885C6.23659 22.6116 7.18428 22.6741 7.80736 22.1282L14.8711 15.939C15.0957 15.7422 15.4417 15.7849 15.6117 16.0305L16.0282 16.632C17.2374 18.3787 19.7111 18.6541 21.2749 17.2161L26.8342 12.1041Z" fill="#2754C8"/>
</svg>
