<svg width="376" height="240" viewBox="0 0 376 240" fill="none" xmlns="http://www.w3.org/2000/svg">
<path d="M291.996 180.565H173.342C172.322 180.563 171.345 180.157 170.623 179.436C169.902 178.714 169.496 177.737 169.495 176.717V3.84757C169.498 2.82878 169.905 1.8528 170.626 1.13302C171.347 0.413231 172.323 0.00819942 173.342 0.00646973H291.996C293.015 0.00819942 293.992 0.413231 294.713 1.13302C295.434 1.8528 295.84 2.82878 295.844 3.84757V176.717C295.842 177.737 295.436 178.714 294.715 179.436C293.994 180.157 293.016 180.563 291.996 180.565ZM173.342 0.170619C172.857 0.167158 172.376 0.25966 171.926 0.442813C171.477 0.625966 171.068 0.896158 170.723 1.23785C170.378 1.57955 170.104 1.98601 169.917 2.43387C169.73 2.88174 169.633 3.36218 169.633 3.84757V176.717C169.633 177.694 170.021 178.631 170.711 179.322C171.402 180.012 172.339 180.4 173.316 180.4H291.996C292.973 180.4 293.91 180.012 294.601 179.322C295.292 178.631 295.68 177.694 295.68 176.717V3.84757C295.68 2.87064 295.292 1.93373 294.601 1.24293C293.91 0.552139 292.973 0.164052 291.996 0.164052L173.342 0.170619Z" fill="#F0F0F0"/>
<path d="M155.141 180.565H36.4607C35.4408 180.563 34.4631 180.157 33.7419 179.436C33.0207 178.715 32.6148 177.737 32.613 176.717V3.84767C32.6148 2.82774 33.0207 1.85008 33.7419 1.12887C34.4631 0.407673 35.4408 0.00173606 36.4607 0H155.141C156.161 0.00173606 157.139 0.407673 157.86 1.12887C158.581 1.85008 158.987 2.82774 158.989 3.84767V176.717C158.987 177.737 158.581 178.715 157.86 179.436C157.139 180.157 156.161 180.563 155.141 180.565ZM36.4607 0.170717C35.4849 0.170716 34.549 0.557899 33.8584 1.24727C33.1678 1.93665 32.7789 2.87188 32.7772 3.84767V176.717C32.7772 177.694 33.1653 178.631 33.8561 179.322C34.5469 180.012 35.4838 180.401 36.4607 180.401H155.141C156.118 180.401 157.055 180.012 157.746 179.322C158.436 178.631 158.824 177.694 158.824 176.717V3.84767C158.824 2.87074 158.436 1.93382 157.746 1.24303C157.055 0.552236 156.118 0.16415 155.141 0.16415L36.4607 0.170717Z" fill="#F0F0F0"/>
<path d="M328.299 220.663H0V220.827H328.299V220.663Z" fill="#F0F0F0"/>
<path d="M116.041 130.243V16.0276L38.7131 16.0276V130.243H116.041Z" fill="#F5F5F5"/>
<path d="M112.758 19.3041H41.9895V126.96H112.758V19.3041Z" fill="#FAFAFA"/>
<path d="M69.9474 126.947V68.7918H67.5245L63.3748 61.6021L59.6585 55.174V43.3027H58.7786V55.174L55.0623 61.6021L50.9126 68.7918H48.4897V126.947H69.9474Z" fill="#F5F5F5"/>
<path d="M51.5693 54.0052H41.9895V126.94H51.5693V54.0052Z" fill="#F5F5F5"/>
<path d="M97.0256 106.034V53.132L76.0144 61.7663V106.034H97.0256Z" fill="#F5F5F5"/>
<path d="M112.757 68.7919H91.3064V126.94H112.757V68.7919Z" fill="#F0F0F0"/>
<path d="M97.0585 72.3506H93.7295V73.9134H97.0585V72.3506Z" fill="#F5F5F5"/>
<path d="M103.697 72.3506H100.368V73.9134H103.697V72.3506Z" fill="#F5F5F5"/>
<path d="M110.341 72.3506H107.012V73.9134H110.341V72.3506Z" fill="#F5F5F5"/>
<path d="M97.0585 76.2114H93.7295V77.7741H97.0585V76.2114Z" fill="#F5F5F5"/>
<path d="M103.697 76.2114H100.368V77.7741H103.697V76.2114Z" fill="#F5F5F5"/>
<path d="M110.341 76.2114H107.012V77.7741H110.341V76.2114Z" fill="#F5F5F5"/>
<path d="M97.0585 80.0789H93.7295V81.6416H97.0585V80.0789Z" fill="#F5F5F5"/>
<path d="M103.697 80.0789H100.368V81.6416H103.697V80.0789Z" fill="#F5F5F5"/>
<path d="M110.341 80.0789H107.012V81.6416H110.341V80.0789Z" fill="#F5F5F5"/>
<path d="M97.0585 83.9396H93.7295V85.5023H97.0585V83.9396Z" fill="#F5F5F5"/>
<path d="M103.697 83.9396H100.368V85.5023H103.697V83.9396Z" fill="#F5F5F5"/>
<path d="M110.341 83.9396H107.012V85.5023H110.341V83.9396Z" fill="#F5F5F5"/>
<path d="M97.0585 87.8069H93.7295V89.3696H97.0585V87.8069Z" fill="#F5F5F5"/>
<path d="M103.697 87.8069H100.368V89.3696H103.697V87.8069Z" fill="#F5F5F5"/>
<path d="M110.341 87.8069H107.012V89.3696H110.341V87.8069Z" fill="#F5F5F5"/>
<path d="M97.0585 91.6677H93.7295V93.2304H97.0585V91.6677Z" fill="#F5F5F5"/>
<path d="M103.697 91.6677H100.368V93.2304H103.697V91.6677Z" fill="#F5F5F5"/>
<path d="M110.341 91.6677H107.012V93.2304H110.341V91.6677Z" fill="#F5F5F5"/>
<path d="M97.0585 95.5351H93.7295V97.0978H97.0585V95.5351Z" fill="#F5F5F5"/>
<path d="M103.697 95.5351H100.368V97.0978H103.697V95.5351Z" fill="#F5F5F5"/>
<path d="M110.341 95.5351H107.012V97.0978H110.341V95.5351Z" fill="#F5F5F5"/>
<path d="M97.0585 99.396H93.7295V100.959H97.0585V99.396Z" fill="#F5F5F5"/>
<path d="M103.697 99.396H100.368V100.959H103.697V99.396Z" fill="#F5F5F5"/>
<path d="M110.341 99.396H107.012V100.959H110.341V99.396Z" fill="#F5F5F5"/>
<path d="M97.0585 103.263H93.7295V104.826H97.0585V103.263Z" fill="#F5F5F5"/>
<path d="M103.697 103.263H100.368V104.826H103.697V103.263Z" fill="#F5F5F5"/>
<path d="M110.341 103.263H107.012V104.826H110.341V103.263Z" fill="#F5F5F5"/>
<path d="M97.0585 107.124H93.7295V108.687H97.0585V107.124Z" fill="#F5F5F5"/>
<path d="M103.697 107.124H100.368V108.687H103.697V107.124Z" fill="#F5F5F5"/>
<path d="M110.341 107.124H107.012V108.687H110.341V107.124Z" fill="#F5F5F5"/>
<path d="M97.0585 110.985H93.7295V112.548H97.0585V110.985Z" fill="#F5F5F5"/>
<path d="M103.697 110.985H100.368V112.548H103.697V110.985Z" fill="#F5F5F5"/>
<path d="M110.341 110.985H107.012V112.548H110.341V110.985Z" fill="#F5F5F5"/>
<path d="M97.0585 114.852H93.7295V116.415H97.0585V114.852Z" fill="#F5F5F5"/>
<path d="M103.697 114.852H100.368V116.415H103.697V114.852Z" fill="#F5F5F5"/>
<path d="M110.341 114.852H107.012V116.415H110.341V114.852Z" fill="#F5F5F5"/>
<path d="M63.4406 68.7919H41.9895V126.94H63.4406V68.7919Z" fill="#F0F0F0"/>
<path d="M47.7413 72.3506H44.4124V73.9134H47.7413V72.3506Z" fill="#F5F5F5"/>
<path d="M54.3795 72.3506H51.0505V73.9134H54.3795V72.3506Z" fill="#F5F5F5"/>
<path d="M61.0243 72.3506H57.6953V73.9134H61.0243V72.3506Z" fill="#F5F5F5"/>
<path d="M47.7413 76.2114H44.4124V77.7741H47.7413V76.2114Z" fill="#F5F5F5"/>
<path d="M54.3795 76.2114H51.0505V77.7741H54.3795V76.2114Z" fill="#F5F5F5"/>
<path d="M61.0243 76.2114H57.6953V77.7741H61.0243V76.2114Z" fill="#F5F5F5"/>
<path d="M47.7413 80.0789H44.4124V81.6416H47.7413V80.0789Z" fill="#F5F5F5"/>
<path d="M54.3795 80.0789H51.0505V81.6416H54.3795V80.0789Z" fill="#F5F5F5"/>
<path d="M61.0243 80.0789H57.6953V81.6416H61.0243V80.0789Z" fill="#F5F5F5"/>
<path d="M47.7413 83.9396H44.4124V85.5023H47.7413V83.9396Z" fill="#F5F5F5"/>
<path d="M54.3795 83.9396H51.0505V85.5023H54.3795V83.9396Z" fill="#F5F5F5"/>
<path d="M61.0243 83.9396H57.6953V85.5023H61.0243V83.9396Z" fill="#F5F5F5"/>
<path d="M47.7413 87.8069H44.4124V89.3696H47.7413V87.8069Z" fill="#F5F5F5"/>
<path d="M54.3795 87.8069H51.0505V89.3696H54.3795V87.8069Z" fill="#F5F5F5"/>
<path d="M61.0243 87.8069H57.6953V89.3696H61.0243V87.8069Z" fill="#F5F5F5"/>
<path d="M47.7413 91.6677H44.4124V93.2304H47.7413V91.6677Z" fill="#F5F5F5"/>
<path d="M54.3795 91.6677H51.0505V93.2304H54.3795V91.6677Z" fill="#F5F5F5"/>
<path d="M61.0243 91.6677H57.6953V93.2304H61.0243V91.6677Z" fill="#F5F5F5"/>
<path d="M47.7413 95.5351H44.4124V97.0978H47.7413V95.5351Z" fill="#F5F5F5"/>
<path d="M54.3795 95.5351H51.0505V97.0978H54.3795V95.5351Z" fill="#F5F5F5"/>
<path d="M61.0243 95.5351H57.6953V97.0978H61.0243V95.5351Z" fill="#F5F5F5"/>
<path d="M47.7413 99.396H44.4124V100.959H47.7413V99.396Z" fill="#F5F5F5"/>
<path d="M54.3795 99.396H51.0505V100.959H54.3795V99.396Z" fill="#F5F5F5"/>
<path d="M61.0243 99.396H57.6953V100.959H61.0243V99.396Z" fill="#F5F5F5"/>
<path d="M47.7413 103.263H44.4124V104.826H47.7413V103.263Z" fill="#F5F5F5"/>
<path d="M54.3795 103.263H51.0505V104.826H54.3795V103.263Z" fill="#F5F5F5"/>
<path d="M61.0243 103.263H57.6953V104.826H61.0243V103.263Z" fill="#F5F5F5"/>
<path d="M47.7413 107.124H44.4124V108.687H47.7413V107.124Z" fill="#F5F5F5"/>
<path d="M54.3795 107.124H51.0505V108.687H54.3795V107.124Z" fill="#F5F5F5"/>
<path d="M61.0243 107.124H57.6953V108.687H61.0243V107.124Z" fill="#F5F5F5"/>
<path d="M47.7413 110.985H44.4124V112.548H47.7413V110.985Z" fill="#F5F5F5"/>
<path d="M54.3795 110.985H51.0505V112.548H54.3795V110.985Z" fill="#F5F5F5"/>
<path d="M61.0243 110.985H57.6953V112.548H61.0243V110.985Z" fill="#F5F5F5"/>
<path d="M47.7413 114.852H44.4124V116.415H47.7413V114.852Z" fill="#F5F5F5"/>
<path d="M54.3795 114.852H51.0505V116.415H54.3795V114.852Z" fill="#F5F5F5"/>
<path d="M61.0243 114.852H57.6953V116.415H61.0243V114.852Z" fill="#F5F5F5"/>
<path d="M102.035 68.7918H93.7295L97.8792 61.6021L102.035 54.4058L106.185 61.6021L110.335 68.7918H102.035Z" fill="#F0F0F0"/>
<path d="M102.469 43.3027H101.589V59.6979H102.469V43.3027Z" fill="#F0F0F0"/>
<path d="M89.5271 72.3506H66.533V126.947H89.5271V72.3506Z" fill="#F0F0F0"/>
<path d="M76.8941 70.4858H68.2205V77.8923H76.8941V70.4858Z" fill="#F0F0F0"/>
<path d="M71.3263 69.9344H69.002V76.5857H71.3263V69.9344Z" fill="#F0F0F0"/>
<path d="M76.1654 69.9344H73.8411V76.5857H76.1654V69.9344Z" fill="#F0F0F0"/>
<path d="M88.0566 70.5121H82.8892V75.6796H88.0566V70.5121Z" fill="#F0F0F0"/>
<path d="M73.2372 76.9927H69.9082V78.5554H73.2372V76.9927Z" fill="#F5F5F5"/>
<path d="M79.8753 76.9927H76.5464V78.5554H79.8753V76.9927Z" fill="#F5F5F5"/>
<path d="M86.5199 76.9927H83.1909V78.5554H86.5199V76.9927Z" fill="#F5F5F5"/>
<path d="M73.2372 80.8601H69.9082V82.4228H73.2372V80.8601Z" fill="#F5F5F5"/>
<path d="M79.8753 80.8601H76.5464V82.4228H79.8753V80.8601Z" fill="#F5F5F5"/>
<path d="M86.5199 80.8601H83.1909V82.4228H86.5199V80.8601Z" fill="#F5F5F5"/>
<path d="M73.2372 84.7209H69.9082V86.2837H73.2372V84.7209Z" fill="#F5F5F5"/>
<path d="M79.8753 84.7209H76.5464V86.2837H79.8753V84.7209Z" fill="#F5F5F5"/>
<path d="M86.5199 84.7209H83.1909V86.2837H86.5199V84.7209Z" fill="#F5F5F5"/>
<path d="M73.2372 88.5883H69.9082V90.151H73.2372V88.5883Z" fill="#F5F5F5"/>
<path d="M79.8753 88.5883H76.5464V90.151H79.8753V88.5883Z" fill="#F5F5F5"/>
<path d="M86.5199 88.5883H83.1909V90.151H86.5199V88.5883Z" fill="#F5F5F5"/>
<path d="M73.2372 92.4491H69.9082V94.0118H73.2372V92.4491Z" fill="#F5F5F5"/>
<path d="M79.8753 92.4491H76.5464V94.0118H79.8753V92.4491Z" fill="#F5F5F5"/>
<path d="M86.5199 92.4491H83.1909V94.0118H86.5199V92.4491Z" fill="#F5F5F5"/>
<path d="M73.2372 96.3165H69.9082V97.8792H73.2372V96.3165Z" fill="#F5F5F5"/>
<path d="M79.8753 96.3165H76.5464V97.8792H79.8753V96.3165Z" fill="#F5F5F5"/>
<path d="M86.5199 96.3165H83.1909V97.8792H86.5199V96.3165Z" fill="#F5F5F5"/>
<path d="M73.2372 100.177H69.9082V101.74H73.2372V100.177Z" fill="#F5F5F5"/>
<path d="M79.8753 100.177H76.5464V101.74H79.8753V100.177Z" fill="#F5F5F5"/>
<path d="M86.5199 100.177H83.1909V101.74H86.5199V100.177Z" fill="#F5F5F5"/>
<path d="M73.2372 104.038H69.9082V105.601H73.2372V104.038Z" fill="#F5F5F5"/>
<path d="M79.8753 104.038H76.5464V105.601H79.8753V104.038Z" fill="#F5F5F5"/>
<path d="M86.5199 104.038H83.1909V105.601H86.5199V104.038Z" fill="#F5F5F5"/>
<path d="M73.2372 107.905H69.9082V109.468H73.2372V107.905Z" fill="#F5F5F5"/>
<path d="M79.8753 107.905H76.5464V109.468H79.8753V107.905Z" fill="#F5F5F5"/>
<path d="M86.5199 107.905H83.1909V109.468H86.5199V107.905Z" fill="#F5F5F5"/>
<path d="M73.2372 111.766H69.9082V113.329H73.2372V111.766Z" fill="#F5F5F5"/>
<path d="M79.8753 111.766H76.5464V113.329H79.8753V111.766Z" fill="#F5F5F5"/>
<path d="M86.5199 111.766H83.1909V113.329H86.5199V111.766Z" fill="#F5F5F5"/>
<path d="M73.2372 115.634H69.9082V117.196H73.2372V115.634Z" fill="#F5F5F5"/>
<path d="M79.8753 115.634H76.5464V117.196H79.8753V115.634Z" fill="#F5F5F5"/>
<path d="M86.5199 115.634H83.1909V117.196H86.5199V115.634Z" fill="#F5F5F5"/>
<path d="M73.2372 119.494H69.9082V121.057H73.2372V119.494Z" fill="#F5F5F5"/>
<path d="M79.8753 119.494H76.5464V121.057H79.8753V119.494Z" fill="#F5F5F5"/>
<path d="M86.5199 119.494H83.1909V121.057H86.5199V119.494Z" fill="#F5F5F5"/>
<path opacity="0.2" d="M108.056 19.3041L41.9895 85.371V66.3953L89.0873 19.3041H108.056Z" fill="white"/>
<path opacity="0.2" d="M112.758 43.2239V56.763L42.5673 126.96H41.9895V113.992L112.758 43.2239Z" fill="white"/>
<path d="M289.101 131.051V16.8352L211.773 16.8352V131.051H289.101Z" fill="#F5F5F5"/>
<path d="M285.818 20.1116H215.049V127.768H285.818V20.1116Z" fill="#FAFAFA"/>
<path d="M243.007 127.754V69.6061H240.584L236.434 62.4098L232.725 55.9816V44.1104H231.838V55.9816L228.128 62.4098L223.972 69.6061H221.556V127.754H243.007Z" fill="#F5F5F5"/>
<path d="M224.629 54.8194H215.049V127.754H224.629V54.8194Z" fill="#F5F5F5"/>
<path d="M270.085 106.842V53.9396L249.074 62.5739V106.842H270.085Z" fill="#F5F5F5"/>
<path d="M285.817 69.6061H264.366V127.754H285.817V69.6061Z" fill="#F0F0F0"/>
<path d="M270.119 73.1582H266.79V74.7209H270.119V73.1582Z" fill="#F5F5F5"/>
<path d="M276.756 73.1582H273.427V74.7209H276.756V73.1582Z" fill="#F5F5F5"/>
<path d="M283.401 73.1582H280.072V74.7209H283.401V73.1582Z" fill="#F5F5F5"/>
<path d="M270.119 77.0256H266.79V78.5883H270.119V77.0256Z" fill="#F5F5F5"/>
<path d="M276.756 77.0256H273.427V78.5883H276.756V77.0256Z" fill="#F5F5F5"/>
<path d="M283.401 77.0256H280.072V78.5883H283.401V77.0256Z" fill="#F5F5F5"/>
<path d="M270.119 80.8864H266.79V82.4491H270.119V80.8864Z" fill="#F5F5F5"/>
<path d="M276.756 80.8864H273.427V82.4491H276.756V80.8864Z" fill="#F5F5F5"/>
<path d="M283.401 80.8864H280.072V82.4491H283.401V80.8864Z" fill="#F5F5F5"/>
<path d="M270.119 84.7538H266.79V86.3165H270.119V84.7538Z" fill="#F5F5F5"/>
<path d="M276.756 84.7538H273.427V86.3165H276.756V84.7538Z" fill="#F5F5F5"/>
<path d="M283.401 84.7538H280.072V86.3165H283.401V84.7538Z" fill="#F5F5F5"/>
<path d="M270.119 88.6146H266.79V90.1773H270.119V88.6146Z" fill="#F5F5F5"/>
<path d="M276.756 88.6146H273.427V90.1773H276.756V88.6146Z" fill="#F5F5F5"/>
<path d="M283.401 88.6146H280.072V90.1773H283.401V88.6146Z" fill="#F5F5F5"/>
<path d="M270.119 92.4819H266.79V94.0446H270.119V92.4819Z" fill="#F5F5F5"/>
<path d="M276.756 92.4819H273.427V94.0446H276.756V92.4819Z" fill="#F5F5F5"/>
<path d="M283.401 92.4819H280.072V94.0446H283.401V92.4819Z" fill="#F5F5F5"/>
<path d="M270.119 96.3427H266.79V97.9054H270.119V96.3427Z" fill="#F5F5F5"/>
<path d="M276.756 96.3427H273.427V97.9054H276.756V96.3427Z" fill="#F5F5F5"/>
<path d="M283.401 96.3427H280.072V97.9054H283.401V96.3427Z" fill="#F5F5F5"/>
<path d="M270.119 100.21H266.79V101.773H270.119V100.21Z" fill="#F5F5F5"/>
<path d="M276.756 100.21H273.427V101.773H276.756V100.21Z" fill="#F5F5F5"/>
<path d="M283.401 100.21H280.072V101.773H283.401V100.21Z" fill="#F5F5F5"/>
<path d="M270.119 104.071H266.79V105.634H270.119V104.071Z" fill="#F5F5F5"/>
<path d="M276.756 104.071H273.427V105.634H276.756V104.071Z" fill="#F5F5F5"/>
<path d="M283.401 104.071H280.072V105.634H283.401V104.071Z" fill="#F5F5F5"/>
<path d="M270.119 107.932H266.79V109.494H270.119V107.932Z" fill="#F5F5F5"/>
<path d="M276.756 107.932H273.427V109.494H276.756V107.932Z" fill="#F5F5F5"/>
<path d="M283.401 107.932H280.072V109.494H283.401V107.932Z" fill="#F5F5F5"/>
<path d="M270.119 111.799H266.79V113.362H270.119V111.799Z" fill="#F5F5F5"/>
<path d="M276.756 111.799H273.427V113.362H276.756V111.799Z" fill="#F5F5F5"/>
<path d="M283.401 111.799H280.072V113.362H283.401V111.799Z" fill="#F5F5F5"/>
<path d="M270.119 115.66H266.79V117.223H270.119V115.66Z" fill="#F5F5F5"/>
<path d="M276.756 115.66H273.427V117.223H276.756V115.66Z" fill="#F5F5F5"/>
<path d="M283.401 115.66H280.072V117.223H283.401V115.66Z" fill="#F5F5F5"/>
<path d="M236.5 69.6061H215.049V127.754H236.5V69.6061Z" fill="#F0F0F0"/>
<path d="M220.801 73.1582H217.472V74.7209H220.801V73.1582Z" fill="#F5F5F5"/>
<path d="M227.446 73.1582H224.117V74.7209H227.446V73.1582Z" fill="#F5F5F5"/>
<path d="M234.084 73.1582H230.755V74.7209H234.084V73.1582Z" fill="#F5F5F5"/>
<path d="M220.801 77.0256H217.472V78.5883H220.801V77.0256Z" fill="#F5F5F5"/>
<path d="M227.446 77.0256H224.117V78.5883H227.446V77.0256Z" fill="#F5F5F5"/>
<path d="M234.084 77.0256H230.755V78.5883H234.084V77.0256Z" fill="#F5F5F5"/>
<path d="M220.801 80.8864H217.472V82.4491H220.801V80.8864Z" fill="#F5F5F5"/>
<path d="M227.446 80.8864H224.117V82.4491H227.446V80.8864Z" fill="#F5F5F5"/>
<path d="M234.084 80.8864H230.755V82.4491H234.084V80.8864Z" fill="#F5F5F5"/>
<path d="M220.801 84.7538H217.472V86.3165H220.801V84.7538Z" fill="#F5F5F5"/>
<path d="M227.446 84.7538H224.117V86.3165H227.446V84.7538Z" fill="#F5F5F5"/>
<path d="M234.084 84.7538H230.755V86.3165H234.084V84.7538Z" fill="#F5F5F5"/>
<path d="M220.801 88.6146H217.472V90.1773H220.801V88.6146Z" fill="#F5F5F5"/>
<path d="M227.446 88.6146H224.117V90.1773H227.446V88.6146Z" fill="#F5F5F5"/>
<path d="M234.084 88.6146H230.755V90.1773H234.084V88.6146Z" fill="#F5F5F5"/>
<path d="M220.801 92.4819H217.472V94.0446H220.801V92.4819Z" fill="#F5F5F5"/>
<path d="M227.446 92.4819H224.117V94.0446H227.446V92.4819Z" fill="#F5F5F5"/>
<path d="M234.084 92.4819H230.755V94.0446H234.084V92.4819Z" fill="#F5F5F5"/>
<path d="M220.801 96.3427H217.472V97.9054H220.801V96.3427Z" fill="#F5F5F5"/>
<path d="M227.446 96.3427H224.117V97.9054H227.446V96.3427Z" fill="#F5F5F5"/>
<path d="M234.084 96.3427H230.755V97.9054H234.084V96.3427Z" fill="#F5F5F5"/>
<path d="M220.801 100.21H217.472V101.773H220.801V100.21Z" fill="#F5F5F5"/>
<path d="M227.446 100.21H224.117V101.773H227.446V100.21Z" fill="#F5F5F5"/>
<path d="M234.084 100.21H230.755V101.773H234.084V100.21Z" fill="#F5F5F5"/>
<path d="M220.801 104.071H217.472V105.634H220.801V104.071Z" fill="#F5F5F5"/>
<path d="M227.446 104.071H224.117V105.634H227.446V104.071Z" fill="#F5F5F5"/>
<path d="M234.084 104.071H230.755V105.634H234.084V104.071Z" fill="#F5F5F5"/>
<path d="M220.801 107.932H217.472V109.494H220.801V107.932Z" fill="#F5F5F5"/>
<path d="M227.446 107.932H224.117V109.494H227.446V107.932Z" fill="#F5F5F5"/>
<path d="M234.084 107.932H230.755V109.494H234.084V107.932Z" fill="#F5F5F5"/>
<path d="M220.801 111.799H217.472V113.362H220.801V111.799Z" fill="#F5F5F5"/>
<path d="M227.446 111.799H224.117V113.362H227.446V111.799Z" fill="#F5F5F5"/>
<path d="M234.084 111.799H230.755V113.362H234.084V111.799Z" fill="#F5F5F5"/>
<path d="M220.801 115.66H217.472V117.223H220.801V115.66Z" fill="#F5F5F5"/>
<path d="M227.446 115.66H224.117V117.223H227.446V115.66Z" fill="#F5F5F5"/>
<path d="M234.084 115.66H230.755V117.223H234.084V115.66Z" fill="#F5F5F5"/>
<path d="M275.096 69.606H266.79L270.939 62.4097L275.096 55.22L279.245 62.4097L283.401 69.606H275.096Z" fill="#F0F0F0"/>
<path d="M275.535 44.1104H274.655V60.5056H275.535V44.1104Z" fill="#F0F0F0"/>
<path d="M262.586 73.1582H239.592V127.754H262.586V73.1582Z" fill="#F0F0F0"/>
<path d="M249.96 71.2935H241.287V78.7H249.96V71.2935Z" fill="#F0F0F0"/>
<path d="M244.386 70.7485H242.062V77.3999H244.386V70.7485Z" fill="#F0F0F0"/>
<path d="M249.232 70.7485H246.907V77.3999H249.232V70.7485Z" fill="#F0F0F0"/>
<path d="M261.123 71.3198H255.956V76.4872H261.123V71.3198Z" fill="#F0F0F0"/>
<path d="M246.297 77.8069H242.968V79.3697H246.297V77.8069Z" fill="#F5F5F5"/>
<path d="M252.941 77.8069H249.612V79.3697H252.941V77.8069Z" fill="#F5F5F5"/>
<path d="M259.58 77.8069H256.251V79.3697H259.58V77.8069Z" fill="#F5F5F5"/>
<path d="M246.297 81.6678H242.968V83.2305H246.297V81.6678Z" fill="#F5F5F5"/>
<path d="M252.941 81.6678H249.612V83.2305H252.941V81.6678Z" fill="#F5F5F5"/>
<path d="M259.58 81.6678H256.251V83.2305H259.58V81.6678Z" fill="#F5F5F5"/>
<path d="M246.297 85.5352H242.968V87.0979H246.297V85.5352Z" fill="#F5F5F5"/>
<path d="M252.941 85.5352H249.612V87.0979H252.941V85.5352Z" fill="#F5F5F5"/>
<path d="M259.58 85.5352H256.251V87.0979H259.58V85.5352Z" fill="#F5F5F5"/>
<path d="M246.297 89.3959H242.968V90.9586H246.297V89.3959Z" fill="#F5F5F5"/>
<path d="M252.941 89.3959H249.612V90.9586H252.941V89.3959Z" fill="#F5F5F5"/>
<path d="M259.58 89.3959H256.251V90.9586H259.58V89.3959Z" fill="#F5F5F5"/>
<path d="M246.297 93.2632H242.968V94.826H246.297V93.2632Z" fill="#F5F5F5"/>
<path d="M252.941 93.2632H249.612V94.826H252.941V93.2632Z" fill="#F5F5F5"/>
<path d="M259.58 93.2632H256.251V94.826H259.58V93.2632Z" fill="#F5F5F5"/>
<path d="M246.297 97.124H242.968V98.6867H246.297V97.124Z" fill="#F5F5F5"/>
<path d="M252.941 97.124H249.612V98.6867H252.941V97.124Z" fill="#F5F5F5"/>
<path d="M259.58 97.124H256.251V98.6867H259.58V97.124Z" fill="#F5F5F5"/>
<path d="M246.297 100.985H242.968V102.548H246.297V100.985Z" fill="#F5F5F5"/>
<path d="M252.941 100.985H249.612V102.548H252.941V100.985Z" fill="#F5F5F5"/>
<path d="M259.58 100.985H256.251V102.548H259.58V100.985Z" fill="#F5F5F5"/>
<path d="M246.297 104.852H242.968V106.415H246.297V104.852Z" fill="#F5F5F5"/>
<path d="M252.941 104.852H249.612V106.415H252.941V104.852Z" fill="#F5F5F5"/>
<path d="M259.58 104.852H256.251V106.415H259.58V104.852Z" fill="#F5F5F5"/>
<path d="M246.297 108.713H242.968V110.276H246.297V108.713Z" fill="#F5F5F5"/>
<path d="M252.941 108.713H249.612V110.276H252.941V108.713Z" fill="#F5F5F5"/>
<path d="M259.58 108.713H256.251V110.276H259.58V108.713Z" fill="#F5F5F5"/>
<path d="M246.297 112.58H242.968V114.143H246.297V112.58Z" fill="#F5F5F5"/>
<path d="M252.941 112.58H249.612V114.143H252.941V112.58Z" fill="#F5F5F5"/>
<path d="M259.58 112.58H256.251V114.143H259.58V112.58Z" fill="#F5F5F5"/>
<path d="M246.297 116.441H242.968V118.004H246.297V116.441Z" fill="#F5F5F5"/>
<path d="M252.941 116.441H249.612V118.004H252.941V116.441Z" fill="#F5F5F5"/>
<path d="M259.58 116.441H256.251V118.004H259.58V116.441Z" fill="#F5F5F5"/>
<path d="M246.297 120.309H242.968V121.871H246.297V120.309Z" fill="#F5F5F5"/>
<path d="M252.941 120.309H249.612V121.871H252.941V120.309Z" fill="#F5F5F5"/>
<path d="M259.58 120.309H256.251V121.871H259.58V120.309Z" fill="#F5F5F5"/>
<path opacity="0.2" d="M281.116 20.1116L215.049 86.1785V67.2094L262.147 20.1116H281.116Z" fill="white"/>
<path opacity="0.2" d="M285.824 44.0315V57.5706L215.627 127.768H215.049V114.806L285.824 44.0315Z" fill="white"/>
<path d="M182.777 149.613H69.0544C69.0544 150.537 69.4218 151.424 70.0756 152.078C70.7295 152.732 71.6163 153.099 72.541 153.099H179.291C180.215 153.099 181.102 152.732 181.756 152.078C182.41 151.424 182.777 150.537 182.777 149.613Z" fill="#F0F0F0"/>
<path d="M160.44 182.58H92.4163V185.804H160.44V182.58Z" fill="#F0F0F0"/>
<path d="M158.03 220.749L167.301 153.093H164.045L154.773 220.749H158.03Z" fill="#F0F0F0"/>
<path d="M165.653 220.749L156.231 153.093H159.488L168.91 220.749H165.653Z" fill="#F0F0F0"/>
<path d="M87.2162 220.749L96.8813 153.093H93.6246L83.9595 220.749H87.2162Z" fill="#F0F0F0"/>
<path d="M94.839 220.749L85.5679 153.093H88.8246L98.0958 220.749H94.839Z" fill="#F0F0F0"/>
<path d="M186.592 144.012H65.2397V149.626H186.592V144.012Z" fill="#F5F5F5"/>
<path d="M108.995 144.031H161.655L162.226 142.718C162.587 141.911 161.648 141.096 160.348 141.096H111.76C111.393 141.065 111.024 141.134 110.693 141.296C110.362 141.457 110.082 141.706 109.882 142.016L108.995 144.031Z" fill="#E0E0E0"/>
<path d="M176.073 107.374L169.33 135.883C169.247 136.255 169.04 136.587 168.743 136.826C168.446 137.065 168.076 137.195 167.695 137.196H126.165C125.911 137.195 125.661 137.137 125.433 137.025C125.205 136.914 125.005 136.753 124.847 136.553C124.69 136.354 124.58 136.122 124.525 135.874C124.47 135.626 124.472 135.369 124.53 135.121L131.267 106.612C131.353 106.24 131.562 105.908 131.86 105.67C132.157 105.432 132.527 105.301 132.909 105.299H174.432C174.687 105.298 174.939 105.355 175.168 105.465C175.398 105.576 175.599 105.737 175.758 105.937C175.916 106.137 176.026 106.37 176.081 106.619C176.136 106.868 176.133 107.126 176.073 107.374Z" fill="#F0F0F0"/>
<path d="M155.896 122.357C155.784 123.241 155.358 124.054 154.696 124.65C154.035 125.247 153.182 125.586 152.292 125.607C151.878 125.617 151.467 125.537 151.087 125.372C150.707 125.207 150.368 124.961 150.092 124.652C149.817 124.343 149.612 123.977 149.492 123.581C149.371 123.185 149.339 122.767 149.396 122.357C149.503 121.467 149.927 120.646 150.59 120.043C151.253 119.44 152.111 119.096 153.007 119.074C153.424 119.065 153.838 119.147 154.219 119.314C154.601 119.481 154.941 119.73 155.217 120.043C155.492 120.356 155.695 120.725 155.813 121.125C155.93 121.525 155.959 121.945 155.896 122.357Z" fill="#E0E0E0"/>
<path d="M134.557 105.305L127.38 137.183H126.165C125.911 137.182 125.661 137.124 125.433 137.012C125.205 136.901 125.005 136.74 124.847 136.54C124.69 136.341 124.58 136.108 124.525 135.86C124.47 135.613 124.472 135.355 124.53 135.108L131.267 106.599C131.353 106.227 131.562 105.895 131.86 105.657C132.157 105.418 132.527 105.288 132.909 105.286L134.557 105.305Z" fill="#E0E0E0"/>
<path d="M146.586 137.183L145.168 143.953H149.331L150.742 137.183H146.586Z" fill="#E0E0E0"/>
<path d="M139.094 142.81L139.947 141.609C140.099 141.403 140.297 141.237 140.525 141.123C140.753 141.008 141.005 140.95 141.261 140.952H152.672C152.967 140.951 153.257 141.032 153.51 141.185C153.762 141.338 153.968 141.557 154.104 141.819L154.682 142.915C154.743 143.031 154.774 143.16 154.772 143.291C154.769 143.422 154.734 143.55 154.668 143.663C154.602 143.776 154.508 143.87 154.396 143.937C154.283 144.004 154.156 144.041 154.025 144.045H139.724C139.579 144.048 139.436 144.011 139.312 143.937C139.187 143.863 139.086 143.755 139.02 143.626C138.954 143.497 138.926 143.352 138.939 143.208C138.952 143.063 139.006 142.925 139.094 142.81Z" fill="#E0E0E0"/>
<path d="M259.054 205.726C259.054 205.726 253.513 206.953 254.34 203.099C255.167 199.245 255.102 197.807 252.849 196.054C250.597 194.301 248.332 193.427 250.052 190.643C251.773 187.859 248.509 185.699 246.815 184.202C245.121 182.705 247.032 181.576 247.472 178.746C247.912 175.916 244.846 176.336 244.635 172.771C244.425 169.205 248.023 165.036 244.905 160.131C244.905 160.131 249.087 162.298 250.466 166.113C251.845 169.928 250.729 172.863 253.197 174.314C255.666 175.765 257.216 178.253 256.382 180.84C255.548 183.427 256.73 184.78 258.759 186.651C260.788 188.523 260.243 189.278 259.993 191.563C259.744 193.848 260.249 193.316 262.567 196.448C264.885 199.58 264.951 204.701 259.054 205.726Z" fill="#F0F0F0"/>
<path d="M259.842 205.555V205.496L248.752 171.845C248.741 171.81 248.737 171.774 248.74 171.738C248.742 171.702 248.752 171.667 248.769 171.634C248.785 171.602 248.808 171.573 248.836 171.55C248.863 171.526 248.895 171.508 248.93 171.497C248.998 171.478 249.072 171.486 249.135 171.518C249.199 171.551 249.247 171.607 249.271 171.674L260.361 205.332C260.364 205.358 260.364 205.384 260.361 205.41L259.842 205.555Z" fill="#E0E0E0"/>
<path d="M269.054 205.66C269.054 205.66 274.563 206.881 273.749 203.033C272.935 199.186 272.988 197.781 275.227 196.021C277.466 194.261 279.724 193.395 278.01 190.643C276.297 187.892 279.547 185.726 281.228 184.235C282.909 182.745 281.011 181.609 280.571 178.805C280.131 176.001 283.158 176.408 283.395 172.896C283.631 169.383 280.033 165.207 283.125 160.322C283.125 160.322 278.969 162.482 277.597 166.27C276.225 170.059 277.334 172.987 274.879 174.432C272.423 175.877 270.88 178.372 271.714 180.919C272.548 183.467 271.366 184.859 269.35 186.697C267.334 188.536 267.873 189.324 268.122 191.589C268.372 193.854 267.866 193.329 265.561 196.448C263.257 199.567 263.191 204.636 269.054 205.66Z" fill="#F0F0F0"/>
<path d="M267.761 205.338C267.758 205.31 267.758 205.281 267.761 205.253L278.792 171.766C278.816 171.699 278.865 171.643 278.928 171.61C278.991 171.577 279.065 171.57 279.133 171.589C279.168 171.599 279.199 171.616 279.227 171.639C279.254 171.663 279.276 171.691 279.292 171.723C279.308 171.755 279.318 171.79 279.32 171.825C279.322 171.861 279.316 171.897 279.304 171.93L268.28 205.417C268.271 205.438 268.26 205.458 268.247 205.476L267.761 205.338Z" fill="#E0E0E0"/>
<path d="M262.935 204.957C262.935 204.957 256.592 204.432 258.759 200.565C260.926 196.697 261.333 195.148 259.501 192.521C257.669 189.895 255.562 188.207 258.306 185.798C261.051 183.388 258.306 179.987 256.993 177.827C255.68 175.666 258.096 175.082 259.514 172.2C260.933 169.317 257.545 168.759 258.464 164.859C259.383 160.959 264.655 157.702 262.948 151.412C262.948 151.412 266.711 155.121 266.888 159.659C267.065 164.196 264.918 166.986 267.091 169.357C269.265 171.727 270.086 174.924 268.332 177.4C266.579 179.875 267.4 181.733 268.95 184.412C270.499 187.091 269.672 187.695 268.641 190.085C267.61 192.475 268.332 192.055 269.777 196.172C271.221 200.289 269.593 205.817 262.935 204.957Z" fill="#F5F5F5"/>
<path d="M263.834 205.036C263.831 205.012 263.831 204.988 263.834 204.964L263.132 165.233C263.132 165.152 263.163 165.073 263.219 165.015C263.276 164.956 263.353 164.921 263.434 164.918C263.474 164.918 263.515 164.926 263.552 164.941C263.589 164.957 263.623 164.98 263.652 165.008C263.681 165.037 263.703 165.071 263.719 165.108C263.734 165.146 263.742 165.186 263.742 165.227L264.445 204.951C264.449 204.981 264.449 205.012 264.445 205.043L263.834 205.036Z" fill="#E0E0E0"/>
<path d="M280.203 201.891H249.185C248.98 201.891 248.777 201.94 248.594 202.036C248.412 202.131 248.255 202.269 248.137 202.438C248.02 202.607 247.945 202.802 247.92 203.007C247.894 203.211 247.918 203.418 247.99 203.611L248.45 204.833L248.739 205.601L249.573 207.814L249.862 208.588L250.715 210.854L251.004 211.628L254.419 220.689H274.97L278.378 211.628L278.673 210.854L279.527 208.588L279.816 207.814L280.65 205.601L280.939 204.833L281.398 203.611C281.47 203.418 281.495 203.211 281.469 203.007C281.444 202.802 281.369 202.607 281.251 202.438C281.134 202.269 280.977 202.131 280.795 202.036C280.612 201.94 280.409 201.891 280.203 201.891Z" fill="#E6E6E6"/>
<path d="M161.51 240C231.976 240 289.1 238.216 289.1 236.014C289.1 233.813 231.976 232.029 161.51 232.029C91.0438 232.029 33.9197 233.813 33.9197 236.014C33.9197 238.216 91.0438 240 161.51 240Z" fill="#F0F0F0"/>
<path d="M75.8107 211.648L70.4135 235.909H55.9158L50.5186 211.648H75.8107Z" fill="url(#paint0_linear_6_6071)"/>
<path opacity="0.5" d="M75.8107 211.648L70.4135 235.909H55.9158L50.5186 211.648H75.8107Z" fill="white"/>
<path d="M76.9008 211.648H49.2449V214.616H76.9008V211.648Z" fill="url(#paint1_linear_6_6071)"/>
<path opacity="0.7" d="M76.9008 211.648H49.2449V214.616H76.9008V211.648Z" fill="white"/>
<path d="M63.3225 211.648H63.9791C64.3074 191.727 58.8117 177.433 58.7263 177.275C58.6409 177.118 58.0697 177.341 58.1288 177.505C58.1879 177.669 63.6902 191.852 63.3225 211.648Z" fill="url(#paint2_linear_6_6071)"/>
<path d="M62.042 191.55C62.042 191.55 59.849 184.846 71.9436 182.515C71.9436 182.515 71.7203 194.261 62.042 191.55Z" fill="url(#paint3_linear_6_6071)"/>
<path d="M63.3226 202.633C63.3226 202.633 61.123 195.929 73.2241 193.605C73.2241 193.605 73.0009 205.345 63.3226 202.633Z" fill="url(#paint4_linear_6_6071)"/>
<path d="M62.8953 195.975C62.8953 195.975 62.1862 188.956 50.1836 191.727C50.1836 191.727 55.154 202.377 62.8953 195.975Z" fill="url(#paint5_linear_6_6071)"/>
<path d="M63.6178 206.08C63.6178 206.08 62.9086 199.061 50.906 201.832C50.906 201.825 55.8699 212.475 63.6178 206.08Z" fill="url(#paint6_linear_6_6071)"/>
<path d="M60.6896 185.108C60.6896 185.108 53.6509 185.594 54.36 173.29C54.36 173.296 65.6929 176.389 60.6896 185.108Z" fill="url(#paint7_linear_6_6071)"/>
<path d="M228.792 151.202C229.142 151.671 229.553 152.093 230.013 152.456L228.995 154.865L231.622 155.982L232.6 153.664C233.218 153.8 233.854 153.842 234.484 153.789L235.587 156.514L238.253 155.43L237.229 152.922C237.934 152.507 238.555 151.963 239.061 151.32L241.477 152.338L242.593 149.711L240.315 148.72C240.475 147.986 240.502 147.23 240.394 146.487L242.652 145.568L241.569 142.942L239.389 143.828C238.914 143.101 238.295 142.48 237.57 142.003L238.542 139.691L235.916 138.575L234.898 140.992C234.317 140.909 233.726 140.909 233.145 140.992L232.101 138.418L229.442 139.501L230.453 141.996C229.73 142.476 229.11 143.094 228.628 143.815L226.316 142.843L225.2 145.47L227.616 146.487C227.519 147.184 227.536 147.891 227.669 148.582L225.174 149.6L226.257 152.259L228.792 151.202ZM231.556 146.33C231.759 145.853 232.099 145.446 232.533 145.162C232.967 144.878 233.475 144.729 233.994 144.733C234.512 144.737 235.018 144.895 235.447 145.186C235.876 145.478 236.209 145.889 236.405 146.37C236.6 146.85 236.649 147.377 236.545 147.886C236.441 148.394 236.189 148.86 235.821 149.225C235.453 149.59 234.985 149.838 234.476 149.937C233.967 150.036 233.44 149.983 232.961 149.783C232.641 149.65 232.351 149.455 232.107 149.208C231.863 148.962 231.67 148.67 231.539 148.349C231.409 148.028 231.343 147.684 231.346 147.338C231.349 146.991 231.42 146.649 231.556 146.33Z" fill="url(#paint8_linear_6_6071)"/>
<g opacity="0.5">
<path d="M228.792 151.202C229.142 151.671 229.553 152.093 230.013 152.456L228.995 154.865L231.622 155.982L232.6 153.664C233.218 153.8 233.854 153.842 234.484 153.789L235.587 156.514L238.253 155.43L237.229 152.922C237.934 152.507 238.555 151.963 239.061 151.32L241.477 152.338L242.593 149.711L240.315 148.72C240.475 147.986 240.502 147.23 240.394 146.487L242.652 145.568L241.569 142.942L239.389 143.828C238.914 143.101 238.295 142.48 237.57 142.003L238.542 139.691L235.916 138.575L234.898 140.992C234.317 140.909 233.726 140.909 233.145 140.992L232.101 138.418L229.442 139.501L230.453 141.996C229.73 142.476 229.11 143.094 228.628 143.815L226.316 142.843L225.2 145.47L227.616 146.487C227.519 147.184 227.536 147.891 227.669 148.582L225.174 149.6L226.257 152.259L228.792 151.202ZM231.556 146.33C231.759 145.853 232.099 145.446 232.533 145.162C232.967 144.878 233.475 144.729 233.994 144.733C234.512 144.737 235.018 144.895 235.447 145.186C235.876 145.478 236.209 145.889 236.405 146.37C236.6 146.85 236.649 147.377 236.545 147.886C236.441 148.394 236.189 148.86 235.821 149.225C235.453 149.59 234.985 149.838 234.476 149.937C233.967 150.036 233.44 149.983 232.961 149.783C232.641 149.65 232.351 149.455 232.107 149.208C231.863 148.962 231.67 148.67 231.539 148.349C231.409 148.028 231.343 147.684 231.346 147.338C231.349 146.991 231.42 146.649 231.556 146.33Z" fill="white"/>
</g>
<path d="M77.7939 48.5687C78.1425 49.0399 78.5533 49.4618 79.0151 49.8228L77.9974 52.239L80.6238 53.3553L81.6021 51.044C82.2205 51.1799 82.8557 51.222 83.4866 51.1688L84.5897 53.8871L87.2554 52.8037L86.2312 50.2955C86.938 49.8826 87.5597 49.3389 88.0631 48.6934L90.4794 49.7177L91.5956 47.0913L89.2975 46.0933C89.4545 45.3573 89.4811 44.5995 89.3763 43.8543L91.635 42.9416L90.5516 40.2758L88.3717 41.1622C87.8919 40.4396 87.2738 39.8192 86.5529 39.3369L87.5247 37.0257L84.8983 35.9094L83.8805 38.3257C83.2988 38.2474 82.7092 38.2474 82.1274 38.3257L81.0834 35.7584L78.457 36.8352L79.4485 39.3041C78.7261 39.7868 78.1059 40.407 77.6231 41.1294L75.3119 40.1511L74.1957 42.7775L76.612 43.7952C76.5143 44.4915 76.5321 45.1992 76.6645 45.8897L74.1694 46.9009L75.2528 49.5667L77.7939 48.5687ZM80.5581 43.7033C80.7605 43.2254 81.0999 42.8182 81.5335 42.533C81.9671 42.2479 82.4754 42.0975 82.9944 42.101C83.5133 42.1046 84.0196 42.2617 84.4493 42.5527C84.879 42.8437 85.2129 43.2554 85.4087 43.736C85.6046 44.2166 85.6538 44.7444 85.5499 45.2529C85.4461 45.7613 85.194 46.2276 84.8253 46.5929C84.4567 46.9582 83.9882 47.2061 83.4788 47.3053C82.9694 47.4046 82.442 47.3506 81.9633 47.1504C81.6442 47.0169 81.3546 46.8218 81.1111 46.5761C80.8676 46.3304 80.6751 46.0391 80.5445 45.7188C80.414 45.3985 80.348 45.0555 80.3503 44.7097C80.3526 44.3638 80.4233 44.0218 80.5581 43.7033Z" fill="url(#paint9_linear_6_6071)"/>
<g opacity="0.5">
<path d="M77.7939 48.5687C78.1425 49.0399 78.5533 49.4618 79.0151 49.8228L77.9974 52.239L80.6238 53.3553L81.6021 51.044C82.2205 51.1799 82.8557 51.222 83.4866 51.1688L84.5897 53.8871L87.2554 52.8037L86.2312 50.2955C86.938 49.8826 87.5597 49.3389 88.0631 48.6934L90.4794 49.7177L91.5956 47.0913L89.2975 46.0933C89.4545 45.3573 89.4811 44.5995 89.3763 43.8543L91.635 42.9416L90.5516 40.2758L88.3717 41.1622C87.8919 40.4396 87.2738 39.8192 86.5529 39.3369L87.5247 37.0257L84.8983 35.9094L83.8805 38.3257C83.2988 38.2474 82.7092 38.2474 82.1274 38.3257L81.0834 35.7584L78.457 36.8352L79.4485 39.3041C78.7261 39.7868 78.1059 40.407 77.6231 41.1294L75.3119 40.1511L74.1957 42.7775L76.612 43.7952C76.5143 44.4915 76.5321 45.1992 76.6645 45.8897L74.1694 46.9009L75.2528 49.5667L77.7939 48.5687ZM80.5581 43.7033C80.7605 43.2254 81.0999 42.8182 81.5335 42.533C81.9671 42.2479 82.4754 42.0975 82.9944 42.101C83.5133 42.1046 84.0196 42.2617 84.4493 42.5527C84.879 42.8437 85.2129 43.2554 85.4087 43.736C85.6046 44.2166 85.6538 44.7444 85.5499 45.2529C85.4461 45.7613 85.194 46.2276 84.8253 46.5929C84.4567 46.9582 83.9882 47.2061 83.4788 47.3053C82.9694 47.4046 82.442 47.3506 81.9633 47.1504C81.6442 47.0169 81.3546 46.8218 81.1111 46.5761C80.8676 46.3304 80.6751 46.0391 80.5445 45.7188C80.414 45.3985 80.348 45.0555 80.3503 44.7097C80.3526 44.3638 80.4233 44.0218 80.5581 43.7033Z" fill="white"/>
</g>
<path d="M169.665 44.9375V67.4063H102.259V0.00646973H108.339C108.339 0.00646973 112.482 1.18835 113.854 4.47791C115.089 7.40634 113.244 10.9388 112.823 11.7005L112.751 11.8252C111.852 13.3813 111.379 15.1466 111.379 16.9436C111.379 18.7407 111.852 20.5061 112.75 22.0624C113.648 23.6187 114.941 24.9111 116.497 25.8097C118.053 26.7083 119.818 27.1813 121.615 27.1813C123.412 27.1813 125.178 26.7083 126.734 25.8097C128.29 24.9111 129.582 23.6187 130.481 22.0624C131.379 20.5061 131.852 18.7407 131.852 16.9436C131.851 15.1466 131.378 13.3813 130.479 11.8252C130.448 11.7908 130.424 11.7507 130.407 11.7071C129.98 10.9585 128.135 7.42604 129.363 4.48447C130.749 1.20148 134.885 0.0130371 134.885 0.0130371H169.685V18.4241C169.685 18.4241 168.496 22.5672 165.213 23.9461C162.285 25.1805 158.753 23.3289 157.991 22.9152L157.866 22.843C156.309 21.9321 154.536 21.4559 152.732 21.4641C151.16 21.4629 149.609 21.8236 148.199 22.5183C146.79 23.213 145.559 24.2229 144.602 25.4699C143.645 26.7169 142.989 28.1674 142.683 29.709C142.377 31.2506 142.431 32.8419 142.839 34.3596C143.247 35.8773 143.999 37.2806 145.037 38.4607C146.075 39.6409 147.371 40.5662 148.824 41.1649C150.277 41.7637 151.849 42.0198 153.417 41.9134C154.985 41.807 156.507 41.341 157.866 40.5514L157.984 40.4792C158.733 40.059 162.265 38.2074 165.207 39.4418C168.477 40.7944 169.665 44.9375 169.665 44.9375Z" fill="url(#paint10_linear_6_6071)"/>
<g opacity="0.7">
<path d="M169.665 44.9375V67.4063H102.259V0.00646973H108.339C108.339 0.00646973 112.482 1.18835 113.854 4.47791C115.089 7.40634 113.244 10.9388 112.823 11.7005L112.751 11.8252C111.852 13.3813 111.379 15.1466 111.379 16.9436C111.379 18.7407 111.852 20.5061 112.75 22.0624C113.648 23.6187 114.941 24.9111 116.497 25.8097C118.053 26.7083 119.818 27.1813 121.615 27.1813C123.412 27.1813 125.178 26.7083 126.734 25.8097C128.29 24.9111 129.582 23.6187 130.481 22.0624C131.379 20.5061 131.852 18.7407 131.852 16.9436C131.851 15.1466 131.378 13.3813 130.479 11.8252C130.448 11.7908 130.424 11.7507 130.407 11.7071C129.98 10.9585 128.135 7.42604 129.363 4.48447C130.749 1.20148 134.885 0.0130371 134.885 0.0130371H169.685V18.4241C169.685 18.4241 168.496 22.5672 165.213 23.9461C162.285 25.1805 158.753 23.3289 157.991 22.9152L157.866 22.843C156.309 21.9321 154.536 21.4559 152.732 21.4641C151.16 21.4629 149.609 21.8236 148.199 22.5183C146.79 23.213 145.559 24.2229 144.602 25.4699C143.645 26.7169 142.989 28.1674 142.683 29.709C142.377 31.2506 142.431 32.8419 142.839 34.3596C143.247 35.8773 143.999 37.2806 145.037 38.4607C146.075 39.6409 147.371 40.5662 148.824 41.1649C150.277 41.7637 151.849 42.0198 153.417 41.9134C154.985 41.807 156.507 41.341 157.866 40.5514L157.984 40.4792C158.733 40.059 162.265 38.2074 165.207 39.4418C168.477 40.7944 169.665 44.9375 169.665 44.9375Z" fill="white"/>
</g>
<path d="M237.032 0.00646973V67.3407H228.024C227.367 67.1174 223.861 65.8633 222.62 62.9086C221.379 59.9539 223.23 56.4543 223.651 55.686L223.73 55.5613C224.637 54.0052 225.113 52.2349 225.108 50.4333C225.106 48.8657 224.742 47.3198 224.047 45.915C223.351 44.5103 222.342 43.2843 221.097 42.3319C219.852 41.3794 218.404 40.7261 216.866 40.4223C215.329 40.1185 213.741 40.1724 212.228 40.5799C210.714 40.9873 209.314 41.7374 208.137 42.7722C206.959 43.8069 206.036 45.0986 205.437 46.5473C204.838 47.9961 204.581 49.5631 204.684 51.1272C204.788 52.6913 205.25 54.2107 206.034 55.5679L206.113 55.6926C206.533 56.4346 208.372 59.9671 207.144 62.9152C205.916 65.8633 202.423 67.124 201.74 67.3472H169.665V44.8981C169.665 44.8981 168.483 40.755 165.2 39.3761C162.278 38.1549 158.746 39.9933 157.978 40.4136L157.86 40.4858C156.502 41.2862 154.978 41.7622 153.407 41.8768C151.835 41.9913 150.259 41.7413 148.8 41.1462C147.341 40.5511 146.039 39.6269 144.996 38.4459C143.953 37.2648 143.196 35.8588 142.786 34.3374C142.376 32.8161 142.323 31.2205 142.631 29.6751C142.938 28.1298 143.599 26.6765 144.561 25.4285C145.523 24.1805 146.76 23.1717 148.177 22.4806C149.593 21.7895 151.149 21.4349 152.725 21.4444C154.527 21.4393 156.297 21.9153 157.853 22.8233C157.889 22.8542 157.929 22.8806 157.971 22.9021C158.72 23.3223 162.252 25.1673 165.194 23.9329C168.477 22.5606 169.659 18.4175 169.659 18.4175V0.0327343L237.032 0.00646973Z" fill="url(#paint11_linear_6_6071)"/>
<path opacity="0.5" d="M237.032 0.00646973V67.3407H228.024C227.367 67.1174 223.861 65.8633 222.62 62.9086C221.379 59.9539 223.23 56.4543 223.651 55.686L223.73 55.5613C224.637 54.0052 225.113 52.2349 225.108 50.4333C225.106 48.8657 224.742 47.3198 224.047 45.915C223.351 44.5103 222.342 43.2843 221.097 42.3319C219.852 41.3794 218.404 40.7261 216.866 40.4223C215.329 40.1185 213.741 40.1724 212.228 40.5799C210.714 40.9873 209.314 41.7374 208.137 42.7722C206.959 43.8069 206.036 45.0986 205.437 46.5473C204.838 47.9961 204.581 49.5631 204.684 51.1272C204.788 52.6913 205.25 54.2107 206.034 55.5679L206.113 55.6926C206.533 56.4346 208.372 59.9671 207.144 62.9152C205.916 65.8633 202.423 67.124 201.74 67.3472H169.665V44.8981C169.665 44.8981 168.483 40.755 165.2 39.3761C162.278 38.1549 158.746 39.9933 157.978 40.4136L157.86 40.4858C156.502 41.2862 154.978 41.7622 153.407 41.8768C151.835 41.9913 150.259 41.7413 148.8 41.1462C147.341 40.5511 146.039 39.6269 144.996 38.4459C143.953 37.2648 143.196 35.8588 142.786 34.3374C142.376 32.8161 142.323 31.2205 142.631 29.6751C142.938 28.1298 143.599 26.6765 144.561 25.4285C145.523 24.1805 146.76 23.1717 148.177 22.4806C149.593 21.7895 151.149 21.4349 152.725 21.4444C154.527 21.4393 156.297 21.9153 157.853 22.8233C157.889 22.8542 157.929 22.8806 157.971 22.9021C158.72 23.3223 162.252 25.1673 165.194 23.9329C168.477 22.5606 169.659 18.4175 169.659 18.4175V0.0327343L237.032 0.00646973Z" fill="white"/>
<path d="M190.282 74.6224L185.266 86.625C184.425 88.5948 183.565 90.5646 182.699 92.5344C182.265 93.4996 181.812 94.4517 181.385 95.3643C180.959 96.277 180.473 97.1831 180.033 97.9185C179.918 98.1286 179.788 98.3304 179.645 98.5226L178.989 98.8312L178.273 99.1529L176.816 99.8095L170.788 102.337C166.75 104.051 162.705 105.817 158.7 107.676L160.118 112.088C164.485 111.254 168.792 110.282 173.093 109.186C175.24 108.621 177.387 108.063 179.54 107.413L181.175 106.92L182.009 106.658L182.889 106.349L183.224 106.231L183.375 106.165L183.979 105.903L184.294 105.758L184.662 105.528L184.977 105.312C185.259 105.095 185.527 104.861 185.778 104.609C186.041 104.34 186.257 104.097 186.435 103.867C186.789 103.441 187.052 103.073 187.315 102.705C187.754 102.049 188.142 101.444 188.503 100.84C188.772 100.4 189.022 99.9737 189.265 99.5272C189.836 98.4963 190.374 97.4786 190.893 96.4674C191.944 94.4385 192.896 92.4096 193.828 90.3742C195.68 86.2967 197.406 82.2258 198.976 78.0236L190.282 74.6224Z" fill="#263238"/>
<path d="M159.803 108.161C159.093 107.425 158.147 106.961 157.131 106.848C155.666 106.848 154.504 106.402 153.414 106.448C152.324 106.494 153.48 107.413 154.196 107.761C154.911 108.109 155.719 108.536 155.364 109.028C155.01 109.521 150.23 111.655 149.816 112.41C149.402 113.165 150.282 113.066 150.282 113.066C150.282 113.066 149.212 113.559 149.232 114.13C149.251 114.701 150.013 114.603 150.013 114.603C150.013 114.603 149.304 114.957 149.613 115.423C149.921 115.89 154.031 114.767 154.248 114.819C154.248 114.819 151.812 114.957 151.701 115.673C151.589 116.389 153.171 116.152 154.432 115.988C155.736 115.84 156.947 115.244 157.859 114.301C158.733 113.342 160.709 112.193 160.486 110.709C160.356 109.837 160.127 108.982 159.803 108.161Z" fill="#CE7A63"/>
<g opacity="0.2">
<path d="M150.216 114.622C151.438 114.071 152.672 113.561 153.92 113.092C154.051 113.417 154.207 113.731 154.386 114.031C154.478 114.182 154.668 113.985 154.583 113.841C154.036 112.898 153.702 111.847 153.604 110.762C153.604 110.578 153.348 110.643 153.368 110.821C153.392 111.097 153.434 111.371 153.493 111.641C153.481 111.637 153.469 111.634 153.457 111.634C153.444 111.634 153.432 111.637 153.42 111.641C152.407 111.934 151.432 112.348 150.518 112.876C150.38 112.955 150.472 113.211 150.623 113.125C151.517 112.611 152.469 112.208 153.46 111.924C153.476 111.917 153.491 111.907 153.503 111.895C153.516 111.883 153.526 111.868 153.532 111.852C153.61 112.19 153.708 112.523 153.828 112.85C152.58 113.287 151.343 113.797 150.118 114.379C149.967 114.439 150.065 114.688 150.216 114.622Z" fill="black"/>
</g>
<g opacity="0.2">
<path d="M154.898 111.792C155.283 111.198 155.857 110.749 156.527 110.518C157.197 110.287 157.925 110.287 158.595 110.519C158.746 110.578 158.838 110.308 158.687 110.249C157.963 110.002 157.177 110.003 156.455 110.254C155.733 110.506 155.115 110.992 154.701 111.635C154.68 111.661 154.671 111.694 154.674 111.728C154.678 111.761 154.695 111.791 154.721 111.812C154.747 111.833 154.78 111.843 154.814 111.839C154.847 111.835 154.877 111.818 154.898 111.792Z" fill="black"/>
</g>
<path opacity="0.2" d="M201.576 76.0735C201.576 76.1618 201.55 76.2481 201.501 76.3216C201.452 76.395 201.382 76.4522 201.3 76.486C201.219 76.5198 201.129 76.5286 201.042 76.5114C200.956 76.4942 200.876 76.4517 200.814 76.3892C200.751 76.3268 200.709 76.2472 200.691 76.1606C200.674 76.074 200.683 75.9842 200.717 75.9026C200.751 75.821 200.808 75.7513 200.881 75.7023C200.955 75.6532 201.041 75.627 201.129 75.627C201.248 75.627 201.361 75.674 201.445 75.7578C201.529 75.8415 201.576 75.9551 201.576 76.0735Z" fill="black"/>
<path opacity="0.2" d="M201.576 79.0347C201.574 79.1227 201.547 79.2084 201.497 79.281C201.448 79.3535 201.377 79.4097 201.296 79.4425C201.214 79.4753 201.124 79.4832 201.038 79.4652C200.952 79.4473 200.873 79.4042 200.811 79.3415C200.75 79.2789 200.708 79.1993 200.691 79.1129C200.674 79.0264 200.683 78.937 200.717 78.8558C200.751 78.7746 200.809 78.7053 200.882 78.6565C200.955 78.6077 201.041 78.5817 201.129 78.5817C201.188 78.5817 201.247 78.5934 201.302 78.6163C201.356 78.6391 201.406 78.6726 201.447 78.7147C201.489 78.7569 201.522 78.8069 201.544 78.8618C201.566 78.9168 201.577 78.9755 201.576 79.0347Z" fill="black"/>
<path opacity="0.2" d="M201.576 81.9828C201.576 82.0711 201.55 82.1574 201.501 82.2309C201.452 82.3043 201.382 82.3615 201.3 82.3953C201.219 82.4291 201.129 82.4379 201.042 82.4207C200.956 82.4035 200.876 82.361 200.814 82.2985C200.751 82.2361 200.709 82.1565 200.691 82.0699C200.674 81.9833 200.683 81.8935 200.717 81.8119C200.751 81.7304 200.808 81.6606 200.881 81.6116C200.955 81.5625 201.041 81.5363 201.129 81.5363C201.248 81.5363 201.361 81.5834 201.445 81.6671C201.529 81.7508 201.576 81.8644 201.576 81.9828Z" fill="black"/>
<path d="M190.611 225.029L188.936 231.93H185.305L185.141 225.029H190.611Z" fill="#FF8B7B"/>
<path d="M174.76 236.802C174.957 234.557 175.942 233.887 177.163 233.808C178.385 233.729 182.955 232.213 182.955 232.213C182.955 232.213 183.9 230.788 184.734 230.499C185.568 230.21 186.375 231.057 186.375 231.057L188.654 230.781C188.654 230.781 189.31 229.757 189.809 230.65C190.532 232.049 190.466 235.903 190.381 236.802H174.76Z" fill="#263238"/>
<path d="M175.056 236.218H177.886L190.276 236.152C190.433 236.152 190.401 235.916 190.243 235.916H189.403C189.406 235.905 189.406 235.894 189.403 235.883C189.229 235.616 189.112 235.315 189.061 235.001C189.009 234.686 189.024 234.364 189.103 234.055C189.183 233.746 189.326 233.458 189.523 233.207C189.721 232.957 189.968 232.75 190.25 232.6C190.381 232.528 190.25 232.318 190.099 232.39C189.801 232.553 189.54 232.775 189.331 233.042C189.122 233.309 188.97 233.616 188.882 233.944C188.795 234.271 188.775 234.613 188.824 234.949C188.873 235.285 188.989 235.607 189.166 235.896H187.42L175.036 235.962C174.865 235.982 174.898 236.225 175.056 236.218Z" fill="url(#paint12_linear_6_6071)"/>
<path d="M205.634 134.695C204.563 143.951 202.953 153.137 200.814 162.206C200.052 165.568 199.177 169.153 198.188 172.961C200.86 195.036 190.401 226.927 190.401 226.927L184.8 226.802C184.8 226.802 184.097 191.162 184.754 172.502C185.837 141.93 189.56 112.81 189.56 112.81L204.819 112.751C204.819 112.751 207.485 117.347 205.634 134.695Z" fill="url(#paint13_linear_6_6071)"/>
<path opacity="0.2" d="M205.634 134.695C204.563 143.951 202.954 153.137 200.814 162.206C197.603 149.98 203.441 123.887 203.441 123.887L205.634 134.695Z" fill="black"/>
<path d="M184.176 228.122L183.999 225.719H191.471L191.05 228.122H184.176Z" fill="#263238"/>
<path d="M213.841 225.029L212.166 231.93H208.535L208.371 225.029H213.841Z" fill="#FF8B7B"/>
<path d="M197.99 236.802C198.187 234.557 199.172 233.887 200.394 233.808C201.615 233.729 206.172 232.213 206.172 232.213C206.172 232.213 207.117 230.788 207.951 230.499C208.785 230.21 209.593 231.057 209.593 231.057L211.871 230.781C211.871 230.781 212.528 229.757 213.027 230.65C213.755 232.049 213.683 235.903 213.598 236.802H197.99Z" fill="#263238"/>
<path d="M198.293 236.218H201.123L213.513 236.152C213.67 236.152 213.637 235.916 213.48 235.916H212.646V235.883C212.471 235.617 212.353 235.316 212.301 235.002C212.248 234.687 212.262 234.365 212.341 234.056C212.42 233.747 212.563 233.458 212.76 233.207C212.957 232.956 213.205 232.75 213.486 232.6C213.618 232.528 213.486 232.318 213.342 232.39C213.044 232.553 212.783 232.774 212.573 233.041C212.363 233.308 212.21 233.614 212.122 233.942C212.034 234.27 212.014 234.612 212.062 234.948C212.11 235.284 212.226 235.606 212.403 235.896H210.637L198.253 235.962C198.096 235.982 198.129 236.225 198.293 236.218Z" fill="url(#paint14_linear_6_6071)"/>
<path d="M200.381 113.992C200.381 113.992 203.231 156.185 204.163 172.961C205.233 192.121 207.63 224.78 207.951 226.92H213.743C213.086 227.577 221.175 198.253 217.912 174.393C220.972 151.569 224.695 134.852 219.882 113.329L200.381 113.992Z" fill="url(#paint15_linear_6_6071)"/>
<path d="M207.269 228.122L207.091 225.719H214.57L214.143 228.122H207.269Z" fill="#263238"/>
<path d="M221.635 115.01C209.468 119.028 189.015 117.708 189.015 114.918C189.015 107.071 191.793 98.2402 191.051 93.1253C185.292 89.1004 189.79 85.4628 189.291 79.5009C189.119 77.3002 189.776 75.1146 191.133 73.3736C192.49 71.6326 194.449 70.462 196.625 70.0918C197.663 69.9145 198.739 69.7373 199.803 69.5994L200.46 69.5206C203.293 69.1955 206.145 69.0617 208.996 69.1201C210.04 69.1201 211.116 69.1201 212.239 69.1529C213.362 69.1857 214.458 69.2185 215.522 69.2973C216.436 69.3645 217.326 69.6224 218.134 70.0542C218.943 70.486 219.652 71.0823 220.216 71.8047C220.78 72.5271 221.187 73.3596 221.409 74.2486C221.632 75.1375 221.667 76.0634 221.51 76.9664C220.575 82.2034 219.982 87.4959 219.738 92.8101C219.685 93.9067 219.652 94.9638 219.639 96.0012C219.565 99.6391 219.73 103.278 220.131 106.894C220.131 106.966 220.131 107.032 220.131 107.098C220.302 108.536 220.519 109.862 220.788 111.077C220.86 111.458 220.946 111.819 221.031 112.18C221.143 112.935 221.438 114.255 221.635 115.01Z" fill="#263238"/>
<path opacity="0.2" d="M213.926 78.6998L220 87.8462C220.092 86.7497 220.203 85.627 220.335 84.491L213.926 78.6998Z" fill="black"/>
<path d="M199.796 79.5599C199.796 79.6627 199.755 79.7612 199.683 79.8339C199.61 79.9065 199.512 79.9473 199.409 79.9473C199.306 79.9473 199.208 79.9065 199.135 79.8339C199.062 79.7612 199.021 79.6627 199.021 79.5599C199.021 79.4572 199.062 79.3587 199.135 79.286C199.208 79.2134 199.306 79.1725 199.409 79.1725C199.512 79.1725 199.61 79.2134 199.683 79.286C199.755 79.3587 199.796 79.4572 199.796 79.5599Z" fill="url(#paint16_linear_6_6071)"/>
<path d="M199.56 83.0662C199.561 83.1176 199.551 83.1687 199.532 83.2165C199.513 83.2643 199.485 83.3077 199.449 83.3444C199.413 83.3811 199.37 83.4102 199.322 83.4301C199.275 83.45 199.224 83.4602 199.173 83.4602C199.068 83.4602 198.968 83.4187 198.894 83.3448C198.82 83.2709 198.779 83.1707 198.779 83.0662C198.779 83.0148 198.789 82.9639 198.809 82.9164C198.829 82.869 198.858 82.826 198.894 82.7899C198.931 82.7539 198.975 82.7255 199.022 82.7064C199.07 82.6873 199.121 82.678 199.173 82.6788C199.224 82.6779 199.274 82.6874 199.322 82.7065C199.369 82.7257 199.412 82.7542 199.448 82.7903C199.485 82.8265 199.513 82.8695 199.532 82.9169C199.551 82.9643 199.561 83.0151 199.56 83.0662Z" fill="url(#paint17_linear_6_6071)"/>
<path d="M199.173 87.0256C199.387 87.0256 199.56 86.8521 199.56 86.6382C199.56 86.4242 199.387 86.2508 199.173 86.2508C198.959 86.2508 198.785 86.4242 198.785 86.6382C198.785 86.8521 198.959 87.0256 199.173 87.0256Z" fill="url(#paint18_linear_6_6071)"/>
<path d="M208.949 69.1201C206.074 74.1824 199.291 77.2159 199.291 77.2159C198.378 74.9441 198.634 71.3065 199.803 69.5994L200.46 69.5206C203.277 69.1975 206.114 69.0637 208.949 69.1201Z" fill="#FF8B7B"/>
<path d="M204.859 49.2514C204.859 49.2514 210.052 54.2153 207.662 59.8423C206.619 62.4168 204.598 64.4731 202.042 65.5613L204.859 49.2514Z" fill="#263238"/>
<path d="M196.54 48.0104C196.54 48.0104 191.438 47.1569 190.348 52.7774C189.258 58.3978 189.527 60.4464 191.005 61.845C192.974 63.6835 196.067 61.6808 196.067 61.6808L196.54 48.0104Z" fill="#263238"/>
<path d="M199.724 71.1096C199.696 71.1892 199.661 71.2661 199.619 71.3394C198.634 72.8824 199.704 74.3007 201.385 74.1759C201.549 74.1642 201.711 74.1422 201.871 74.1103C202.48 73.9864 203.035 73.6767 203.46 73.2239C204.756 71.8319 206.159 70.5432 207.656 69.3696C205.115 68.0105 204.189 63.1845 203.959 60.1772L200.02 65.1871L199.284 66.2771C199.644 66.8866 199.931 67.5368 200.138 68.214C200.31 68.6938 200.363 69.2085 200.291 69.7132C200.219 70.2179 200.024 70.6973 199.724 71.1096Z" fill="#FF8B7B"/>
<path d="M207.268 69.1135C208.653 68.7712 210.1 68.7712 211.484 69.1135L207.662 75.6795C205.647 74.2153 203.342 76.1194 199.291 77.2094C202.643 75.2949 205.404 72.4938 207.268 69.1135Z" fill="url(#paint19_linear_6_6071)"/>
<path d="M207.268 69.1135C208.653 68.7712 210.1 68.7712 211.484 69.1135L207.662 75.6795C205.647 74.2153 203.342 76.1194 199.291 77.2094C202.643 75.2949 205.404 72.4938 207.268 69.1135Z" fill="url(#paint20_linear_6_6071)"/>
<path d="M200.315 69.4156C200.315 69.4156 197.977 68.9888 196.625 70.0722C196.135 71.7655 195.771 73.4927 195.535 75.2396C195.535 75.2396 197.78 74.1168 199.291 77.2094C199.291 77.216 198.522 72.3112 200.315 69.4156Z" fill="url(#paint21_linear_6_6071)"/>
<path d="M200.315 69.4156C200.315 69.4156 197.977 68.9888 196.625 70.0722C196.135 71.7655 195.771 73.4927 195.535 75.2396C195.535 75.2396 197.78 74.1168 199.291 77.2094C199.291 77.216 198.522 72.3112 200.315 69.4156Z" fill="url(#paint22_linear_6_6071)"/>
<g opacity="0.2">
<path d="M200.144 68.1943C199.938 67.5171 199.651 66.8669 199.291 66.2573L200.026 65.1674L202.508 65.2199C202.073 66.4465 201.241 67.493 200.144 68.1943Z" fill="black"/>
</g>
<path d="M204.681 54.7931C205.075 59.7439 205.338 61.8318 203.27 64.6946C200.144 69.0019 194.077 68.3781 192.252 63.6375C190.597 59.3696 190.23 51.9829 194.668 49.3696C199.107 46.7563 204.288 49.8358 204.681 54.7931Z" fill="#FF8B7B"/>
<path d="M203.591 58.0301C206.08 57.3735 205.102 54.8062 205.102 54.8062L201.444 55.3709C201.444 55.3709 201.109 58.6867 203.591 58.0301Z" fill="#263238"/>
<path d="M193.04 49.8095C193.04 49.8095 193.611 52.541 196.98 52.6854C200.348 52.8299 200.046 57.8003 203.808 57.0124C207.571 56.2245 206.435 50.4464 204.846 49.2251C203.257 48.0039 196.796 45.3118 193.04 49.8095Z" fill="#263238"/>
<path d="M200.919 47.3079C200.919 47.3079 203.362 40.0853 209.035 42.9415C214.708 45.7977 209.731 53.2304 206.133 52.2652C202.535 51.3 200.919 47.3079 200.919 47.3079Z" fill="#263238"/>
<path d="M194.314 62.4227C195.369 61.8182 196.356 61.1004 197.256 60.2822C197.256 60.2822 197.61 62.1601 196.349 62.8561C196.018 63.0539 195.624 63.1192 195.247 63.0388C194.869 62.9585 194.536 62.7384 194.314 62.4227Z" fill="white"/>
<path d="M196.533 57.0321C196.585 57.4326 196.421 57.7872 196.159 57.82C195.896 57.8528 195.64 57.5639 195.587 57.1634C195.535 56.7629 195.693 56.4083 195.955 56.3755C196.218 56.3426 196.474 56.6315 196.533 57.0321Z" fill="#263238"/>
<path d="M192.469 57.6887C192.521 58.0892 192.357 58.4372 192.094 58.4766C191.832 58.516 191.576 58.2206 191.523 57.82C191.471 57.4195 191.628 57.0649 191.891 57.0256C192.154 56.9862 192.41 57.2882 192.469 57.6822" fill="#263238"/>
<path d="M192.009 57.0321L191.011 56.8942C191.011 56.8942 191.609 57.5508 192.009 57.0321Z" fill="#263238"/>
<path d="M193.959 57.5771C193.959 57.5771 193.421 58.7328 192.804 59.7571C192.755 59.8341 192.725 59.9212 192.715 60.0117C192.705 60.1022 192.715 60.1939 192.745 60.2797C192.776 60.3656 192.825 60.4435 192.89 60.5077C192.954 60.5718 193.033 60.6205 193.119 60.65C193.546 60.783 193.986 60.8668 194.432 60.8995L193.959 57.5771Z" fill="#FF5652"/>
<path d="M206.907 57.9447C206.784 58.3798 206.57 58.7837 206.279 59.13C205.988 59.4763 205.627 59.7571 205.22 59.9539C204.169 60.407 203.46 59.2973 203.592 58.0301C203.716 56.9007 204.406 55.2921 205.561 55.4037C206.717 55.5153 207.288 56.8285 206.934 57.971" fill="#FF8B7B"/>
<path d="M197.636 55.3972C197.57 55.3969 197.506 55.371 197.459 55.3249C197.264 55.0972 197.017 54.9189 196.74 54.8048C196.463 54.6907 196.162 54.6439 195.863 54.6683C195.833 54.6739 195.801 54.6735 195.771 54.6669C195.741 54.6604 195.712 54.6479 195.686 54.6302C195.66 54.6126 195.639 54.59 195.622 54.5639C195.605 54.5377 195.593 54.5085 195.588 54.4779C195.582 54.4473 195.582 54.4159 195.589 54.3855C195.596 54.355 195.608 54.3262 195.626 54.3006C195.643 54.275 195.666 54.2531 195.692 54.2362C195.718 54.2193 195.747 54.2078 195.778 54.2022C196.152 54.1581 196.532 54.2043 196.885 54.3368C197.238 54.4693 197.554 54.6843 197.807 54.9638C197.83 54.9853 197.848 55.0112 197.86 55.04C197.873 55.0688 197.879 55.0999 197.879 55.1312C197.879 55.1626 197.873 55.1937 197.86 55.2225C197.848 55.2512 197.83 55.2772 197.807 55.2987C197.786 55.3197 197.762 55.3364 197.735 55.3477C197.708 55.359 197.679 55.3646 197.649 55.3643" fill="#263238"/>
<path d="M190.604 56.1195C190.556 56.1238 190.508 56.1133 190.466 56.0894C190.424 56.0654 190.39 56.0292 190.369 55.9855C190.349 55.9419 190.342 55.8929 190.35 55.8453C190.358 55.7976 190.38 55.7535 190.414 55.7189C190.644 55.4185 190.943 55.178 191.286 55.0179C191.629 54.8579 192.005 54.783 192.383 54.7997C192.446 54.8058 192.504 54.8365 192.544 54.8852C192.584 54.9338 192.603 54.9964 192.597 55.0591C192.591 55.1217 192.56 55.1794 192.511 55.2195C192.463 55.2595 192.4 55.2786 192.337 55.2725C192.04 55.2655 191.745 55.3291 191.477 55.4581C191.209 55.587 190.975 55.7777 190.794 56.0144C190.754 56.0653 190.695 56.0983 190.63 56.1063" fill="#263238"/>
<path d="M196.073 56.3755L195.075 56.2311C195.075 56.2311 195.673 56.8877 196.073 56.3755Z" fill="#263238"/>
<path d="M226.454 100.125C224.412 103.408 222.14 106.691 219.888 109.928L223.329 113.027C226.406 110.285 229.297 107.341 231.983 104.215C233.413 102.588 234.73 100.864 235.922 99.0545C236.231 98.5686 236.533 98.0696 236.829 97.5049C237.157 96.8869 237.436 96.2436 237.662 95.5811C237.81 95.1534 237.922 94.7141 237.997 94.2679C238.112 93.5943 238.112 92.9061 237.997 92.2324C237.894 91.6346 237.715 91.0522 237.465 90.499C237.307 90.1278 237.127 89.766 236.927 89.4156C236.316 88.3592 235.625 87.3516 234.859 86.4018C234.169 85.5154 233.48 84.6947 232.784 83.8936C231.372 82.3178 229.961 80.8011 228.49 79.35C225.574 76.4412 222.58 73.7098 219.402 71.09L213.335 78.2009L222.075 86.0801C223.506 87.3933 224.944 88.7065 226.284 90.0197C226.94 90.6763 227.597 91.3329 228.253 91.9895C228.793 92.5592 229.301 93.1576 229.777 93.782C229.737 93.8936 229.698 94.0184 229.652 94.1366C229.514 94.4846 229.35 94.8654 229.179 95.2528C228.356 96.923 227.447 98.5492 226.454 100.125Z" fill="#263238"/>
<path d="M220.144 108.477C220.144 108.477 216.264 109.921 215.666 110.676C215.069 111.431 218.877 115.725 220.354 116.323C221.832 116.92 221.077 115.141 221.077 115.141C221.077 115.141 222.987 115.588 223.874 114.136C224.76 112.685 223.716 108.72 220.144 108.477Z" fill="#FF8B7B"/>
<path d="M126.92 221.792V231.944L131.018 232.265L133.027 222.764L126.92 221.792Z" fill="#FFC3BD"/>
<path d="M129.829 231.313C129.829 231.313 131.142 228.838 131.878 229.1C132.613 229.363 132.948 232.383 132.948 232.383C132.948 232.383 137.085 233.762 138.234 233.834C139.383 233.907 140.328 234.563 140.473 236.815H126.362C126.362 236.815 126.461 231.727 126.487 230.854C126.513 229.98 127.754 231.07 127.754 231.07L129.829 231.313Z" fill="#263238"/>
<path d="M126.52 232.777C126.772 232.916 126.992 233.105 127.169 233.333C127.345 233.56 127.473 233.821 127.545 234.099C127.616 234.378 127.631 234.668 127.587 234.952C127.543 235.236 127.441 235.508 127.288 235.752C127.28 235.763 127.273 235.777 127.27 235.791C127.267 235.805 127.267 235.819 127.269 235.834C127.272 235.848 127.278 235.861 127.286 235.873C127.294 235.885 127.304 235.896 127.317 235.903C127.329 235.911 127.343 235.916 127.357 235.918C127.371 235.92 127.386 235.92 127.4 235.916C127.414 235.912 127.427 235.905 127.438 235.896C127.449 235.887 127.459 235.876 127.466 235.863C127.637 235.597 127.753 235.299 127.805 234.987C127.857 234.675 127.845 234.355 127.77 234.048C127.694 233.74 127.556 233.452 127.365 233.199C127.174 232.947 126.933 232.736 126.658 232.58C126.54 232.508 126.402 232.705 126.52 232.777Z" fill="white"/>
<path d="M126.5 235.995L137.57 236.113H140.138C140.282 236.113 140.315 235.89 140.138 235.89L129.068 235.771H126.494C126.349 235.771 126.323 235.995 126.494 235.995H126.5Z" fill="white"/>
<path d="M132.337 233.257C132.445 233.093 132.585 232.953 132.749 232.846C132.913 232.738 133.097 232.665 133.289 232.63C133.482 232.596 133.68 232.601 133.871 232.646C134.062 232.69 134.241 232.773 134.399 232.889C134.504 232.981 134.642 232.784 134.537 232.699C133.808 232.101 132.817 232.357 132.16 233.145C132.062 233.263 132.239 233.375 132.337 233.257Z" fill="white"/>
<path d="M133.506 233.657C133.614 233.494 133.754 233.354 133.918 233.246C134.081 233.138 134.265 233.065 134.458 233.031C134.651 232.996 134.849 233.002 135.04 233.046C135.23 233.091 135.41 233.173 135.568 233.289C135.673 233.375 135.811 233.184 135.706 233.099C134.977 232.502 133.986 232.758 133.329 233.546C133.23 233.657 133.408 233.775 133.506 233.657Z" fill="white"/>
<path d="M134.714 233.992C134.821 233.828 134.961 233.687 135.125 233.579C135.288 233.471 135.473 233.397 135.666 233.363C135.859 233.328 136.057 233.334 136.248 233.379C136.439 233.424 136.618 233.507 136.776 233.624C136.881 233.71 137.019 233.519 136.914 233.434C136.185 232.836 135.194 233.093 134.537 233.874C134.438 233.992 134.616 234.104 134.714 233.992Z" fill="white"/>
<path d="M124.458 121.175C124.576 122.987 124.327 128.549 124.57 131.536C125.036 137.229 125.653 144.609 126.145 152.003C126.717 160.538 127.124 169.133 126.92 175.082C126.395 190.361 126.513 224.984 126.513 224.984H133.138C133.138 224.984 140.919 190.578 142.377 175.082C143.591 162.245 142.948 129.173 142.744 121.175H124.458Z" fill="#263238"/>
<path opacity="0.2" d="M124.458 121.175C124.576 122.987 124.327 128.549 124.57 131.536C125.036 137.229 125.653 144.609 126.145 152.003C126.717 160.538 127.124 169.133 126.92 175.082C126.395 190.361 126.513 224.984 126.513 224.984H133.138C133.138 224.984 140.919 190.578 142.377 175.082C143.591 162.245 142.948 129.173 142.744 121.175H124.458Z" fill="white"/>
<path opacity="0.2" d="M124.57 131.536C125.036 137.229 125.653 144.609 126.146 152.003C129.429 142.351 126.376 127.761 126.376 127.761L124.57 131.536Z" fill="black"/>
<path d="M125.936 225.213H133.71L134.281 222.731L125.732 222.626L125.936 225.213Z" fill="url(#paint23_linear_6_6071)"/>
<path d="M93.0466 219.895L91.4971 229.928L95.4958 230.88L98.9298 221.792L93.0466 219.895Z" fill="#FFC3BD"/>
<path d="M94.4647 229.75C94.4647 229.75 96.1193 227.505 96.8284 227.879C97.5376 228.253 97.3866 231.274 97.3866 231.274C97.3866 231.274 101.26 233.244 102.39 233.519C103.519 233.795 104.36 234.557 104.15 236.802L90.2034 234.649C90.2034 234.649 91.0766 229.632 91.2342 228.772C91.3918 227.912 92.4489 229.186 92.4489 229.186L94.4647 229.75Z" fill="#263238"/>
<path d="M90.9715 230.696C91.199 230.871 91.3883 231.092 91.5276 231.343C91.6669 231.594 91.7534 231.871 91.7816 232.157C91.8099 232.443 91.7794 232.732 91.6921 233.006C91.6047 233.279 91.4623 233.532 91.2735 233.749C91.1816 233.867 91.3392 234.005 91.4311 233.887C91.6414 233.651 91.8012 233.374 91.9006 233.074C92 232.774 92.0371 232.457 92.0094 232.142C91.9817 231.827 91.8899 231.521 91.7397 231.243C91.5894 230.965 91.3839 230.721 91.1357 230.525C91.0306 230.433 90.8665 230.604 90.9715 230.696Z" fill="white"/>
<path d="M90.4593 233.874L101.378 235.673L103.92 236.093C104.064 236.093 104.123 235.903 103.985 235.876L93.0594 234.071L90.5183 233.651C90.3805 233.651 90.3148 233.848 90.4593 233.874Z" fill="white"/>
<path d="M96.6512 232.055C96.7825 231.91 96.9418 231.794 97.1196 231.712C97.2974 231.631 97.4899 231.587 97.6853 231.583C97.8808 231.578 98.075 231.614 98.2562 231.687C98.4374 231.761 98.6018 231.87 98.7392 232.009C98.8312 232.108 98.9953 231.937 98.9034 231.838C98.2796 231.142 97.2619 231.241 96.4871 231.917C96.3755 232.016 96.5331 232.153 96.6512 232.055Z" fill="white"/>
<path d="M97.7478 232.594C97.879 232.448 98.0386 232.331 98.2167 232.25C98.3948 232.169 98.5876 232.125 98.7833 232.122C98.979 232.118 99.1734 232.154 99.3544 232.229C99.5354 232.303 99.6993 232.414 99.8358 232.554C99.9278 232.653 100.092 232.482 100.007 232.383C99.3499 231.681 98.3585 231.786 97.5903 232.456C97.4721 232.561 97.6362 232.699 97.7478 232.594Z" fill="white"/>
<path d="M98.8903 233.145C99.021 232.999 99.1802 232.882 99.358 232.8C99.5359 232.719 99.7286 232.674 99.9243 232.67C100.12 232.665 100.314 232.701 100.496 232.775C100.677 232.849 100.841 232.959 100.978 233.099C101.07 233.198 101.234 233.027 101.142 232.928C100.486 232.226 99.4943 232.331 98.7261 233.007C98.6145 233.106 98.7721 233.244 98.8903 233.145Z" fill="white"/>
<path d="M116.382 176.421C112.285 191.425 98.5225 223.874 98.5225 223.874L91.9565 222.738C91.9565 222.738 98.7589 188.976 101.891 174.018C104.721 160.519 107.8 129.521 108.831 120.289L130.748 122.259C129.58 130.138 119.75 163.972 116.349 176.415L116.382 176.421Z" fill="#263238"/>
<path opacity="0.2" d="M116.382 176.421C112.285 191.425 98.5225 223.874 98.5225 223.874L91.9565 222.738C91.9565 222.738 98.7589 188.976 101.891 174.018C104.721 160.519 107.8 129.521 108.831 120.289L130.748 122.259C129.58 130.138 119.75 163.972 116.349 176.415L116.382 176.421Z" fill="white"/>
<path d="M91.3855 222.869L99.0414 224.202L100.033 221.858L91.4971 220.302L91.3855 222.869Z" fill="url(#paint24_linear_6_6071)"/>
<path d="M146.06 75.9618C145.693 79.1332 145.089 85.8108 144.498 93.3683C144.281 96.2179 144.058 99.2054 143.841 102.16C143.605 105.581 143.408 108.864 143.257 111.852C143.198 113.06 143.145 114.222 143.099 115.318C142.889 120.762 142.889 124.734 143.191 125.929C126.231 132.797 107.807 123.92 107.807 123.92C108.897 115.043 109.993 104.951 109.993 104.951C110.512 101.169 111.011 97.3473 111.458 93.7425C111.49 93.4536 111.53 93.1582 111.563 92.8758C111.779 91.103 111.976 89.3958 112.16 87.7806L112.226 87.1831C112.58 83.9986 112.882 81.1818 113.014 78.9297C113.316 74.6815 115.89 70.7353 119.731 70.0262C120.893 69.8095 122.147 69.6191 123.447 69.4746C123.756 69.4287 124.104 69.4024 124.386 69.3696C128.055 68.9644 131.747 68.8131 135.437 68.9165H135.968H136.251C136.402 68.9165 136.559 68.9165 136.71 68.9165C138.176 68.9754 139.638 69.1113 141.09 69.3236C141.853 69.4314 142.587 69.6889 143.25 70.0812C143.913 70.4736 144.493 70.9931 144.954 71.6099C145.416 72.2267 145.752 72.9287 145.942 73.6756C146.131 74.4224 146.172 75.1994 146.06 75.9618Z" fill="url(#paint25_linear_6_6071)"/>
<path opacity="0.3" d="M134.603 78.1746C134.606 78.2825 134.578 78.3892 134.521 78.4811C134.464 78.5729 134.381 78.6458 134.283 78.6904C134.185 78.735 134.075 78.7494 133.969 78.7317C133.862 78.714 133.763 78.665 133.684 78.5909C133.606 78.5169 133.551 78.4211 133.527 78.3158C133.503 78.2105 133.51 78.1004 133.549 77.9995C133.587 77.8985 133.655 77.8114 133.743 77.749C133.832 77.6867 133.936 77.6519 134.044 77.6493C134.188 77.6457 134.327 77.6989 134.431 77.7972C134.536 77.8956 134.597 78.0312 134.603 78.1746Z" fill="white"/>
<path opacity="0.3" d="M134.688 81.5364C134.692 81.6444 134.664 81.7511 134.607 81.8429C134.55 81.9348 134.467 82.0077 134.368 82.0523C134.27 82.0969 134.161 82.1113 134.054 82.0936C133.947 82.0759 133.849 82.0269 133.77 81.9528C133.691 81.8788 133.636 81.783 133.612 81.6777C133.588 81.5724 133.596 81.4623 133.634 81.3613C133.673 81.2604 133.741 81.1732 133.829 81.1109C133.917 81.0485 134.022 81.0138 134.13 81.0112C134.273 81.0076 134.412 81.0608 134.517 81.1591C134.621 81.2575 134.683 81.393 134.688 81.5364Z" fill="white"/>
<path opacity="0.3" d="M134.8 84.8982C134.803 85.0062 134.775 85.1128 134.718 85.2047C134.661 85.2965 134.578 85.3694 134.48 85.414C134.382 85.4587 134.272 85.473 134.166 85.4553C134.059 85.4376 133.96 85.3886 133.881 85.3146C133.803 85.2405 133.748 85.1448 133.724 85.0394C133.7 84.9341 133.707 84.824 133.746 84.7231C133.784 84.6222 133.852 84.535 133.94 84.4727C134.029 84.4103 134.133 84.3756 134.241 84.3729C134.385 84.3694 134.524 84.4225 134.628 84.5209C134.733 84.6192 134.794 84.7548 134.8 84.8982Z" fill="white"/>
<path opacity="0.2" d="M124.458 85.1411C124.458 85.1411 125.115 99.7701 126.244 100.899C127.374 102.029 141.123 107.557 141.123 107.557C133.244 106.645 126.211 105.404 122.738 102.751C121.471 99.2055 123.289 91.7596 124.458 85.1411Z" fill="black"/>
<path opacity="0.2" d="M143.276 111.852C143.217 113.06 143.165 114.222 143.119 115.318C138.267 115.003 120.25 114.754 115.299 107.636C112.403 103.467 113.821 86.4675 113.821 86.4675C115.597 92.3253 118.844 97.6306 123.252 101.878C127.66 106.125 133.082 109.172 139.002 110.729L143.276 111.852Z" fill="black"/>
<path d="M170.105 92.4294C167.991 92.3046 165.877 92.1864 163.835 91.996C162.83 91.8975 161.812 91.7925 160.952 91.6611L160.552 91.5889C160.5 91.5253 160.442 91.466 160.381 91.4116C159.941 90.9914 159.265 90.2889 158.654 89.5732C158.043 88.8575 157.387 88.063 156.75 87.2685C155.469 85.6861 154.202 84.0249 152.935 82.3571C150.414 79.0151 147.873 75.581 145.312 72.2718L136.776 78.4307C139.284 82.0682 141.93 85.4891 144.774 88.8706C146.192 90.5581 147.656 92.2127 149.206 93.8673C149.993 94.6881 150.795 95.4957 151.661 96.323C152.601 97.2394 153.606 98.0865 154.668 98.8575C154.984 99.0807 155.325 99.3237 155.817 99.5863L156.205 99.7964L156.691 100.013C156.848 100.079 157.111 100.171 157.347 100.236L157.577 100.295L157.774 100.341C158.543 100.508 159.325 100.605 160.112 100.63C161.385 100.696 162.521 100.63 163.664 100.63C165.923 100.532 168.109 100.368 170.289 100.144C172.959 99.873 175.614 99.5491 178.253 99.1726L178.969 98.8509L179.626 98.5423C179.764 98.3482 179.891 98.1465 180.007 97.9382C180.446 97.2028 180.913 96.3033 181.359 95.3841C181.714 94.6618 182.075 93.9133 182.416 93.1516C178.313 92.843 174.176 92.6592 170.105 92.4294ZM160.099 91.4576H160.138C160.223 91.4781 160.306 91.5044 160.387 91.5364H160.46C160.336 91.5263 160.215 91.4998 160.099 91.4576Z" fill="url(#paint26_linear_6_6071)"/>
<path opacity="0.2" d="M146.434 90.7879L144.95 80.5121L144.648 88.713L146.434 90.7879Z" fill="black"/>
<path d="M136.323 46.1391C135.098 45.7769 133.811 45.6698 132.543 45.8246C131.275 45.9793 130.052 46.3925 128.949 47.0386C127.505 47.9119 126.284 49.1791 126.428 50.9782C126.865 54.6926 127.51 58.3797 128.359 62.0222L142.003 54.7996C142.003 54.7996 142.81 51.254 141.024 49.1332C139.809 47.6683 138.165 46.6212 136.323 46.1391Z" fill="#263238"/>
<path d="M131.057 46.126C130.203 46.1207 129.358 46.2931 128.575 46.6322C127.791 46.9714 127.087 47.4698 126.507 48.0958C125.016 49.8358 126.855 54.3007 126.855 54.3007L131.057 46.126Z" fill="#263238"/>
<path d="M129.672 46.6513C129.672 46.6513 130.197 44.8194 135.765 44.8194C141.333 44.8194 144.727 44.7537 144.025 47.9645C143.099 52.2193 136.29 50.6631 136.29 50.6631L129.672 46.6513Z" fill="#263238"/>
<path d="M134.819 66.7891V66.8351L134.077 69.1923C134.007 69.6704 133.978 70.1537 133.992 70.6368C134.007 71.0266 134.048 71.415 134.117 71.799C134.609 72.5409 134.773 74.1824 132.922 74.1036C130.565 74.0117 126.356 70.5908 126.264 69.5468C127.498 66.382 128.615 62.449 128.582 59.3696L131.129 62.3965L134.819 66.7891Z" fill="#FFC3BD"/>
<g opacity="0.2">
<path d="M134.8 66.8417L134.058 69.1989C132.62 68.4635 131.143 66.9402 130.867 65.3578C130.67 64.2218 131.228 63.1844 131.688 63.145L134.8 66.8417Z" fill="black"/>
</g>
<path d="M140.985 62.1207C140.821 62.6329 140.643 63.1319 140.453 63.6309C138.765 68.0104 133.23 68.168 129.993 64.734C129.698 64.4193 129.426 64.0836 129.179 63.7294C127.144 60.7813 127.787 58.6079 128.339 53.644C128.454 52.4881 128.863 51.3809 129.527 50.4277C130.191 49.4745 131.088 48.707 132.132 48.1983C133.177 47.6896 134.334 47.4566 135.494 47.5214C136.654 47.5862 137.778 47.9467 138.759 48.5685C142.804 51.1227 142.62 56.9927 140.985 62.1207Z" fill="#FFC3BD"/>
<path d="M134.891 59.908C135.936 60.5079 137.013 61.0514 138.115 61.5364C137.976 61.7435 137.795 61.9193 137.584 62.053C137.373 62.1866 137.137 62.275 136.89 62.3126C136.643 62.3503 136.391 62.3363 136.15 62.2716C135.909 62.207 135.684 62.093 135.489 61.9369C135.198 61.6973 134.985 61.3759 134.879 61.0142C134.772 60.6525 134.777 60.2672 134.891 59.908Z" fill="white"/>
<path d="M139.146 48.0696C136.842 46.369 132.088 45.8306 130.059 48.0696C128.03 50.3086 128.253 54.0709 128.253 54.0709C128.25 54.4794 128.403 54.8738 128.68 55.174C128.737 55.2289 128.79 55.2882 128.838 55.3512L131.293 55.6008C131.425 54.583 131.714 52.7314 132.39 52.5935C133.664 52.3309 132.699 50.9717 132.928 50.1641C133.657 47.5377 140.808 48.8509 141.825 52.7446C141.531 50.9123 140.578 49.2502 139.146 48.0696Z" fill="#263238"/>
<path d="M125.647 56.5396C125.789 57.7868 126.42 58.9268 127.4 59.711C128.713 60.7419 130.026 59.711 130.171 58.1549C130.322 56.7432 129.823 54.5107 128.253 54.0905C127.907 54.0023 127.544 54.0025 127.197 54.0911C126.851 54.1797 126.533 54.3539 126.271 54.5977C126.01 54.8415 125.814 55.1471 125.701 55.4864C125.589 55.8257 125.563 56.1879 125.627 56.5396" fill="#FFC3BD"/>
<path d="M135.699 56.1982C135.634 56.579 135.785 56.927 136.034 56.9664C136.284 57.0058 136.54 56.7366 136.605 56.3558C136.671 55.975 136.52 55.627 136.27 55.5876C136.021 55.5482 135.765 55.8174 135.699 56.1982Z" fill="#263238"/>
<path d="M139.737 56.8877C139.672 57.2685 139.816 57.6165 140.066 57.6559C140.315 57.6953 140.571 57.4261 140.637 57.0453C140.703 56.6645 140.558 56.3165 140.309 56.2771C140.059 56.2377 139.803 56.5069 139.737 56.8877Z" fill="#263238"/>
<path d="M141.379 55.6401C141.343 55.6341 141.31 55.6188 141.282 55.5957C141.255 55.5727 141.234 55.5426 141.221 55.5088C141.187 55.3692 141.124 55.2385 141.036 55.1253C140.948 55.0121 140.836 54.919 140.709 54.8522C140.446 54.7569 140.158 54.7569 139.895 54.8522C139.846 54.8697 139.792 54.868 139.745 54.8472C139.697 54.8265 139.659 54.7883 139.639 54.7405C139.629 54.7164 139.625 54.6906 139.625 54.6647C139.625 54.6387 139.631 54.6131 139.641 54.5893C139.652 54.5655 139.667 54.544 139.685 54.526C139.704 54.508 139.726 54.4939 139.75 54.4845C140.111 54.3435 140.512 54.3435 140.873 54.4845C141.047 54.5698 141.201 54.6904 141.325 54.8385C141.449 54.9866 141.541 55.1589 141.596 55.3446C141.605 55.3692 141.609 55.3953 141.608 55.4216C141.608 55.4479 141.601 55.4737 141.59 55.4976C141.579 55.5214 141.564 55.5429 141.544 55.5606C141.525 55.5783 141.502 55.5919 141.477 55.6007C141.448 55.6207 141.414 55.6342 141.379 55.6401Z" fill="#263238"/>
<path d="M134.78 54.4976C134.747 54.4914 134.715 54.478 134.688 54.4582C134.665 54.442 134.646 54.4214 134.632 54.3977C134.617 54.374 134.608 54.3476 134.603 54.3201C134.599 54.2926 134.6 54.2646 134.607 54.2376C134.614 54.2105 134.626 54.1851 134.642 54.1628C134.89 53.8209 135.258 53.5861 135.673 53.5062C135.882 53.4806 136.094 53.499 136.295 53.56C136.496 53.6211 136.682 53.7235 136.842 53.8607C136.868 53.8766 136.89 53.8977 136.907 53.9227C136.925 53.9478 136.937 53.9762 136.942 54.0061C136.948 54.0361 136.947 54.0669 136.94 54.0965C136.933 54.1261 136.919 54.1539 136.901 54.178C136.882 54.2021 136.859 54.2221 136.832 54.2366C136.805 54.251 136.776 54.2597 136.745 54.262C136.715 54.2642 136.684 54.2601 136.656 54.2498C136.627 54.2395 136.601 54.2233 136.579 54.2022C136.466 54.103 136.333 54.028 136.19 53.9818C136.046 53.9355 135.895 53.9189 135.745 53.933C135.447 53.996 135.18 54.1608 134.99 54.3991C134.969 54.4344 134.937 54.4625 134.9 54.48C134.862 54.4975 134.821 54.5037 134.78 54.4976Z" fill="#263238"/>
<path d="M138.326 56.1326C138.507 57.1387 138.813 58.1182 139.238 59.0479C139.849 60.2297 137.722 59.908 137.722 59.908L138.326 56.1326Z" fill="#ED847E"/>
<path d="M148.936 109.494L148.457 114.202C143.572 114.239 138.69 113.934 133.847 113.289C131.351 112.972 128.876 112.507 126.434 111.897C125.127 111.581 123.842 111.179 122.587 110.696C121.888 110.428 121.204 110.124 120.538 109.783C119.748 109.387 119 108.912 118.306 108.365C118.102 108.194 117.912 108.043 117.702 107.84L117.386 107.544L117.071 107.196C116.851 106.943 116.645 106.678 116.454 106.402C116.236 106.075 116.043 105.733 115.876 105.377C115.685 104.975 115.533 104.555 115.423 104.123L115.272 103.526C115.174 103.138 115.121 102.81 115.042 102.449C114.78 101.064 114.609 99.8226 114.465 98.5094C114.182 96.0012 114.038 93.5521 113.933 91.1161L113.828 87.472V83.8542C113.828 81.4247 113.9 79.0413 114.071 76.5922L124.576 76.973C124.576 81.6086 124.465 86.3295 124.419 90.952C124.419 93.2632 124.419 95.5482 124.419 97.7937C124.419 98.8968 124.491 99.9999 124.589 100.959C124.589 101.162 124.589 101.392 124.648 101.576C125.128 101.934 125.638 102.25 126.172 102.521C127.09 102.994 128.033 103.42 128.995 103.795C131.017 104.596 133.184 105.292 135.384 105.949C139.803 107.268 144.405 108.398 148.936 109.494Z" fill="url(#paint27_linear_6_6071)"/>
<path d="M148.234 109.599C148.234 109.599 153.119 108.319 154.143 108.529C155.299 108.766 154.767 114.852 153.27 115.686C151.773 116.52 148.057 113.821 148.057 113.821C147.203 111.838 147.472 110.217 148.234 109.599Z" fill="#FFC3BD"/>
<path d="M148.234 109.599C148.866 108.926 149.625 108.384 150.466 108.004C151.563 107.617 152.639 107.045 153.138 107.242C153.637 107.439 151.93 108.752 151.93 108.752L148.234 109.599Z" fill="#FFC3BD"/>
<path d="M154.15 108.529C154.15 108.529 157.151 109.376 158.089 110.617C159.028 111.858 156.356 111.103 156.356 111.103C156.356 111.103 159.481 112.246 158.195 114.636C157.538 115.804 153.953 116.034 152.285 115.824C152.331 115.824 152.331 110.735 154.15 108.529Z" fill="#FFC3BD"/>
<path d="M126.967 67.5836C126.257 67.6276 125.569 67.8436 124.961 68.2131C124.354 68.5826 123.845 69.0945 123.48 69.7044L129.954 77.321C129.954 77.321 129.908 74.5698 133.46 74.038C133.46 74.1036 128.693 70.604 126.967 67.5836Z" fill="url(#paint28_linear_6_6071)"/>
<path opacity="0.3" d="M126.967 67.5836C126.257 67.6276 125.569 67.8436 124.961 68.2131C124.354 68.5826 123.845 69.0945 123.48 69.7044L129.954 77.321C129.954 77.321 129.908 74.5698 133.46 74.038C133.46 74.1036 128.693 70.604 126.967 67.5836Z" fill="white"/>
<path d="M133.46 74.1037C133.46 74.1037 133.874 69.8292 134.156 68.9165L134.524 67.7478C134.524 67.7478 137.071 67.7872 137.945 69.061L137.603 75.5745C136.396 74.6886 134.956 74.1772 133.46 74.1037Z" fill="url(#paint29_linear_6_6071)"/>
<path opacity="0.3" d="M133.46 74.1037C133.46 74.1037 133.874 69.8292 134.156 68.9165L134.524 67.7478C134.524 67.7478 137.071 67.7872 137.945 69.061L137.603 75.5745C136.396 74.6886 134.956 74.1772 133.46 74.1037Z" fill="white"/>
<defs>
<linearGradient id="paint0_linear_6_6071" x1="50.5186" y1="230.446" x2="83.1378" y2="223.86" gradientUnits="userSpaceOnUse">
<stop stop-color="#2754C8"/>
<stop offset="1" stop-color="#110F72"/>
</linearGradient>
<linearGradient id="paint1_linear_6_6071" x1="49.2449" y1="213.948" x2="57.9636" y2="198.211" gradientUnits="userSpaceOnUse">
<stop stop-color="#2754C8"/>
<stop offset="1" stop-color="#110F72"/>
</linearGradient>
<linearGradient id="paint2_linear_6_6071" x1="58.1245" y1="203.896" x2="65.9934" y2="203.636" gradientUnits="userSpaceOnUse">
<stop stop-color="#2754C8"/>
<stop offset="1" stop-color="#110F72"/>
</linearGradient>
<linearGradient id="paint3_linear_6_6071" x1="61.8867" y1="189.83" x2="74.8346" y2="187.159" gradientUnits="userSpaceOnUse">
<stop stop-color="#2754C8"/>
<stop offset="1" stop-color="#110F72"/>
</linearGradient>
<linearGradient id="paint4_linear_6_6071" x1="63.1663" y1="200.915" x2="76.1147" y2="198.241" gradientUnits="userSpaceOnUse">
<stop stop-color="#2754C8"/>
<stop offset="1" stop-color="#110F72"/>
</linearGradient>
<linearGradient id="paint5_linear_6_6071" x1="50.1836" y1="196.46" x2="65.3407" y2="191.085" gradientUnits="userSpaceOnUse">
<stop stop-color="#2754C8"/>
<stop offset="1" stop-color="#110F72"/>
</linearGradient>
<linearGradient id="paint6_linear_6_6071" x1="50.906" y1="206.562" x2="66.0614" y2="201.186" gradientUnits="userSpaceOnUse">
<stop stop-color="#2754C8"/>
<stop offset="1" stop-color="#110F72"/>
</linearGradient>
<linearGradient id="paint7_linear_6_6071" x1="54.3098" y1="182.449" x2="64.4259" y2="181.18" gradientUnits="userSpaceOnUse">
<stop stop-color="#2754C8"/>
<stop offset="1" stop-color="#110F72"/>
</linearGradient>
<linearGradient id="paint8_linear_6_6071" x1="225.174" y1="152.439" x2="247.842" y2="148.198" gradientUnits="userSpaceOnUse">
<stop stop-color="#2754C8"/>
<stop offset="1" stop-color="#110F72"/>
</linearGradient>
<linearGradient id="paint9_linear_6_6071" x1="74.1694" y1="49.8049" x2="96.8242" y2="45.5775" gradientUnits="userSpaceOnUse">
<stop stop-color="#2754C8"/>
<stop offset="1" stop-color="#110F72"/>
</linearGradient>
<linearGradient id="paint10_linear_6_6071" x1="102.259" y1="52.2294" x2="189.488" y2="35.3273" gradientUnits="userSpaceOnUse">
<stop stop-color="#2754C8"/>
<stop offset="1" stop-color="#110F72"/>
</linearGradient>
<linearGradient id="paint11_linear_6_6071" x1="142.433" y1="52.1836" x2="260.659" y2="20.0155" gradientUnits="userSpaceOnUse">
<stop stop-color="#2754C8"/>
<stop offset="1" stop-color="#110F72"/>
</linearGradient>
<linearGradient id="paint12_linear_6_6071" x1="174.922" y1="235.353" x2="187.834" y2="225.294" gradientUnits="userSpaceOnUse">
<stop stop-color="#2754C8"/>
<stop offset="1" stop-color="#110F72"/>
</linearGradient>
<linearGradient id="paint13_linear_6_6071" x1="184.473" y1="201.217" x2="213.715" y2="200.135" gradientUnits="userSpaceOnUse">
<stop stop-color="#2754C8"/>
<stop offset="1" stop-color="#110F72"/>
</linearGradient>
<linearGradient id="paint14_linear_6_6071" x1="198.151" y1="235.353" x2="211.064" y2="225.288" gradientUnits="userSpaceOnUse">
<stop stop-color="#2754C8"/>
<stop offset="1" stop-color="#110F72"/>
</linearGradient>
<linearGradient id="paint15_linear_6_6071" x1="200.381" y1="201.351" x2="229.618" y2="200.263" gradientUnits="userSpaceOnUse">
<stop stop-color="#2754C8"/>
<stop offset="1" stop-color="#110F72"/>
</linearGradient>
<linearGradient id="paint16_linear_6_6071" x1="199.021" y1="79.7729" x2="200.024" y2="79.5787" gradientUnits="userSpaceOnUse">
<stop stop-color="#2754C8"/>
<stop offset="1" stop-color="#110F72"/>
</linearGradient>
<linearGradient id="paint17_linear_6_6071" x1="198.779" y1="83.2842" x2="199.79" y2="83.0884" gradientUnits="userSpaceOnUse">
<stop stop-color="#2754C8"/>
<stop offset="1" stop-color="#110F72"/>
</linearGradient>
<linearGradient id="paint18_linear_6_6071" x1="198.785" y1="86.8511" x2="199.788" y2="86.657" gradientUnits="userSpaceOnUse">
<stop stop-color="#2754C8"/>
<stop offset="1" stop-color="#110F72"/>
</linearGradient>
<linearGradient id="paint19_linear_6_6071" x1="199.291" y1="75.3286" x2="214.446" y2="71.0436" gradientUnits="userSpaceOnUse">
<stop stop-color="#2754C8"/>
<stop offset="1" stop-color="#110F72"/>
</linearGradient>
<linearGradient id="paint20_linear_6_6071" x1="199.291" y1="75.3286" x2="214.446" y2="71.0436" gradientUnits="userSpaceOnUse">
<stop stop-color="#2754C8"/>
<stop offset="1" stop-color="#110F72"/>
</linearGradient>
<linearGradient id="paint21_linear_6_6071" x1="195.535" y1="75.4358" x2="201.864" y2="74.6919" gradientUnits="userSpaceOnUse">
<stop stop-color="#2754C8"/>
<stop offset="1" stop-color="#110F72"/>
</linearGradient>
<linearGradient id="paint22_linear_6_6071" x1="195.535" y1="75.4358" x2="201.864" y2="74.6919" gradientUnits="userSpaceOnUse">
<stop stop-color="#2754C8"/>
<stop offset="1" stop-color="#110F72"/>
</linearGradient>
<linearGradient id="paint23_linear_6_6071" x1="125.732" y1="224.631" x2="133.872" y2="219.421" gradientUnits="userSpaceOnUse">
<stop stop-color="#2754C8"/>
<stop offset="1" stop-color="#110F72"/>
</linearGradient>
<linearGradient id="paint24_linear_6_6071" x1="91.3855" y1="223.324" x2="101.185" y2="219.115" gradientUnits="userSpaceOnUse">
<stop stop-color="#2754C8"/>
<stop offset="1" stop-color="#110F72"/>
</linearGradient>
<linearGradient id="paint25_linear_6_6071" x1="107.807" y1="115.103" x2="158.452" y2="108.803" gradientUnits="userSpaceOnUse">
<stop stop-color="#2754C8"/>
<stop offset="1" stop-color="#110F72"/>
</linearGradient>
<linearGradient id="paint26_linear_6_6071" x1="136.776" y1="94.2672" x2="192.622" y2="76.8764" gradientUnits="userSpaceOnUse">
<stop stop-color="#2754C8"/>
<stop offset="1" stop-color="#110F72"/>
</linearGradient>
<linearGradient id="paint27_linear_6_6071" x1="113.828" y1="105.736" x2="159.461" y2="97.4853" gradientUnits="userSpaceOnUse">
<stop stop-color="#2754C8"/>
<stop offset="1" stop-color="#110F72"/>
</linearGradient>
<linearGradient id="paint28_linear_6_6071" x1="123.48" y1="75.1283" x2="136.368" y2="72.5697" gradientUnits="userSpaceOnUse">
<stop stop-color="#2754C8"/>
<stop offset="1" stop-color="#110F72"/>
</linearGradient>
<linearGradient id="paint29_linear_6_6071" x1="133.46" y1="73.8121" x2="139.407" y2="73.1521" gradientUnits="userSpaceOnUse">
<stop stop-color="#2754C8"/>
<stop offset="1" stop-color="#110F72"/>
</linearGradient>
</defs>
</svg>
