<svg width="33" height="32" viewBox="0 0 33 32" fill="none" xmlns="http://www.w3.org/2000/svg">
<path d="M18.4902 28.215L19.2608 28.8522V28.8522L18.4902 28.215ZM15.4076 28.215L16.1782 27.5777V27.5777L15.4076 28.215ZM28.6164 15.9693L27.8458 15.332L28.6164 15.9693ZM5.28137 15.9693L4.51072 16.6065L5.28137 15.9693ZM22.2978 4.99978H23.2978H22.2978ZM17.7195 27.5777C17.3196 28.0613 16.5782 28.0613 16.1782 27.5777L14.637 28.8522C15.8368 30.3032 18.061 30.3032 19.2608 28.8522L17.7195 27.5777ZM27.8458 15.332L17.7195 27.5777L19.2608 28.8522L29.3871 16.6065L27.8458 15.332ZM27.0751 13.6948C27.9212 13.6948 28.3849 14.68 27.8458 15.332L29.3871 16.6065C31.0046 14.6505 29.6133 11.6948 27.0751 11.6948L27.0751 13.6948ZM24.2978 13.6948H27.0751L27.0751 11.6948H24.2978V13.6948ZM21.2978 4.99978V10.6948H23.2978V4.99978H21.2978ZM13.5999 3.99978L20.2978 3.99978V1.99978L13.5999 1.99978V3.99978ZM12.5999 10.6948V4.99978H10.5999V10.6948H12.5999ZM6.82266 13.6948L9.59994 13.6948V11.6948H6.82266V13.6948ZM6.05201 15.332C5.51285 14.68 5.97659 13.6948 6.82266 13.6948V11.6948C4.28448 11.6948 2.89322 14.6505 4.51072 16.6065L6.05201 15.332ZM16.1782 27.5777L6.05201 15.332L4.51072 16.6065L14.637 28.8522L16.1782 27.5777ZM10.5999 10.6948C10.5999 11.247 10.1522 11.6948 9.59994 11.6948V13.6948C11.2568 13.6948 12.5999 12.3516 12.5999 10.6948H10.5999ZM13.5999 1.99978C11.9431 1.99978 10.5999 3.34292 10.5999 4.99978H12.5999C12.5999 4.44749 13.0477 3.99978 13.5999 3.99978V1.99978ZM23.2978 4.99978C23.2978 3.34292 21.9547 1.99978 20.2978 1.99978V3.99978C20.8501 3.99978 21.2978 4.44749 21.2978 4.99978H23.2978ZM24.2978 11.6948C23.7456 11.6948 23.2978 11.247 23.2978 10.6948H21.2978C21.2978 12.3516 22.641 13.6948 24.2978 13.6948V11.6948Z" fill="#989898"/>
</svg>
