<svg width="33" height="32" viewBox="0 0 33 32" fill="none" xmlns="http://www.w3.org/2000/svg">
<path fill-rule="evenodd" clip-rule="evenodd" d="M25.8059 12.4998H26.1522C27.2568 12.4998 28.1522 13.3952 28.1522 14.4998V27.9998C28.1522 29.1044 27.2568 29.9998 26.1522 29.9998H6.81885C5.71428 29.9998 4.81885 29.1044 4.81885 27.9998V14.4998C4.81885 13.3952 5.71428 12.4998 6.81885 12.4998H7.16511C7.28608 9.7729 8.25168 7.18681 9.88585 5.24623C11.6362 3.1677 14.0102 2 16.4855 2C18.9609 2 21.3348 3.16771 23.0852 5.24623C24.7193 7.18681 25.6849 9.7729 25.8059 12.4998ZM9.15227 12.4998C9.27079 10.3982 10.0265 8.41058 11.2885 6.9119C12.6668 5.27513 14.5363 4.3556 16.4855 4.3556C18.4348 4.3556 20.3042 5.27513 21.6825 6.9119C22.9446 8.41058 23.7002 10.3982 23.8187 12.4998H9.15227ZM15.3188 19.5001C15.3188 18.8558 15.8412 18.3334 16.4855 18.3334C17.1298 18.3334 17.6522 18.8558 17.6522 19.5001V24.1668C17.6522 24.8111 17.1298 25.3334 16.4855 25.3334C15.8412 25.3334 15.3188 24.8111 15.3188 24.1668V19.5001Z" fill="#2754C8"/>
</svg>
