<svg width="33" height="32" viewBox="0 0 33 32" fill="none" xmlns="http://www.w3.org/2000/svg">
<path fill-rule="evenodd" clip-rule="evenodd" d="M3.18115 7C3.18115 4.79086 4.97201 3 7.18115 3H25.1812C27.3903 3 29.1812 4.79086 29.1812 7V25C29.1812 27.2091 27.3903 29 25.1812 29H7.18115C4.97201 29 3.18115 27.2091 3.18115 25V7ZM23.3144 10.226C23.7418 10.5758 23.8048 11.2058 23.4551 11.6332L15.9889 20.7586C14.7955 22.2172 12.5688 22.2272 11.3623 20.7795L7.91293 16.6402C7.55937 16.2159 7.61669 15.5853 8.04097 15.2318C8.46524 14.8782 9.09581 14.9355 9.44937 15.3598L12.8988 19.4991C13.3009 19.9817 14.0432 19.9783 14.441 19.4922L21.9072 10.3668C22.2569 9.93932 22.8869 9.87632 23.3144 10.226Z" fill="#2754C8"/>
</svg>
