<svg width="33" height="32" viewBox="0 0 33 32" fill="none" xmlns="http://www.w3.org/2000/svg">
<path fill-rule="evenodd" clip-rule="evenodd" d="M17.3952 8.74274C17.3952 9.20692 17.0189 9.58321 16.5547 9.58321C16.0906 9.58321 15.7143 9.20692 15.7143 8.74274V7.63208C15.7143 6.5545 14.8407 5.68095 13.7631 5.68095H5.94761C4.84304 5.68095 3.94761 6.57638 3.94761 7.68095L3.94761 23.8524C3.94761 24.9569 4.84304 25.8524 5.94761 25.8524H13.7143C14.8188 25.8524 15.7143 24.9569 15.7143 23.8524V21.6387C15.7143 21.1745 16.0906 20.7982 16.5547 20.7982C17.0189 20.7982 17.3952 21.1745 17.3952 21.6387V25.8524C17.3952 26.7807 16.6426 27.5333 15.7143 27.5333H3.94761C3.01925 27.5333 2.26666 26.7807 2.26666 25.8524V5.68095C2.26666 4.75259 3.01925 4 3.94761 4H15.7143C16.6426 4 17.3952 4.75259 17.3952 5.68095V8.74274ZM29.3596 16.7413C30.3269 15.9414 30.3269 14.4586 29.3596 13.6587L22.3832 7.8898C21.0792 6.81147 19.1087 7.73896 19.1087 9.43109V10.4721C19.1087 11.0244 18.661 11.4721 18.1087 11.4721H13.3524C12.8001 11.4721 12.3524 11.9198 12.3524 12.4721V17.9274C12.3524 18.4796 12.8001 18.9274 13.3524 18.9274H18.1087C18.661 18.9274 19.1087 19.3751 19.1087 19.9274V20.9689C19.1087 22.6611 21.0792 23.5885 22.3832 22.5102L29.3596 16.7413Z" fill="black"/>
</svg>
