<svg width="33" height="32" viewBox="0 0 33 32" fill="none" xmlns="http://www.w3.org/2000/svg">
<path fill-rule="evenodd" clip-rule="evenodd" d="M3.76331 3.49665C4.4255 2.83445 5.49913 2.83445 6.16132 3.49665L16.2667 13.602L26.372 3.49665C27.0342 2.83445 28.1078 2.83445 28.77 3.49665C29.4322 4.15884 29.4322 5.23247 28.77 5.89466L18.6647 16L28.77 26.1053C29.4322 26.7675 29.4322 27.8412 28.77 28.5034C28.1078 29.1655 27.0342 29.1655 26.372 28.5034L16.2667 18.398L6.16132 28.5034C5.49913 29.1655 4.4255 29.1655 3.76331 28.5034C3.10111 27.8412 3.10111 26.7675 3.76331 26.1053L13.8686 16L3.76331 5.89466C3.10111 5.23247 3.10111 4.15884 3.76331 3.49665Z" fill="black"/>
</svg>
