<svg width="33" height="32" viewBox="0 0 33 32" fill="none" xmlns="http://www.w3.org/2000/svg">
<path fill-rule="evenodd" clip-rule="evenodd" d="M18.0001 3C18.2756 3 18.5486 3.01096 18.8186 3.03248L14.2661 10.8159C13.7084 11.7694 14.0292 12.9944 14.9827 13.552L19.647 16.2802C20.6005 16.8379 21.8255 16.5171 22.3832 15.5636L26.7822 8.0427C27.6615 9.54686 28.1654 11.2972 28.1654 13.1653C28.1654 18.7794 23.6142 23.3306 18.0001 23.3306C17.4412 23.3306 16.8929 23.2855 16.3586 23.1987L12.7939 28.4066C12.17 29.3181 10.9254 29.5512 10.0139 28.9273L6.60393 26.5933C5.69243 25.9694 5.45928 24.7247 6.08318 23.8132L9.52654 18.7826C8.45758 17.1733 7.83482 15.242 7.83482 13.1653C7.83482 7.55115 12.386 3 18.0001 3Z" fill="#989898"/>
</svg>
