<svg width="33" height="32" viewBox="0 0 33 32" fill="none" xmlns="http://www.w3.org/2000/svg">
<path fill-rule="evenodd" clip-rule="evenodd" d="M16.6212 2C12.2912 2 8.78115 5.51009 8.78115 9.84C8.78115 11.7123 7.75117 13.3934 6.46416 14.7532C4.42916 16.9034 3.18115 19.8061 3.18115 23.0003C3.18115 25.2095 4.97201 27.0003 7.18115 27.0003H26.0612C28.2703 27.0003 30.0612 25.2095 30.0612 23.0003C30.0612 19.8061 28.8131 16.9034 26.7781 14.7532C25.4911 13.3934 24.4612 11.7123 24.4612 9.84C24.4612 5.51009 20.9511 2 16.6212 2Z" fill="#2754C8"/>
<path d="M11.1812 28H21.1812C21.1812 29.6569 19.838 31 18.1812 31H14.1812C12.5243 31 11.1812 29.6569 11.1812 28Z" fill="#2754C8"/>
</svg>
