<svg width="33" height="32" viewBox="0 0 33 32" fill="none" xmlns="http://www.w3.org/2000/svg">
<path fill-rule="evenodd" clip-rule="evenodd" d="M11.7333 2C11.1811 2 10.7333 2.44771 10.7333 3V15.6087C10.7333 16.161 11.1811 16.6087 11.7333 16.6087H21.7333C22.2856 16.6087 22.7333 16.161 22.7333 15.6087V3C22.7333 2.44772 22.2856 2 21.7333 2H11.7333ZM13.2551 6.1739C12.9669 6.1739 12.7333 6.40749 12.7333 6.69564C12.7333 6.98379 12.9669 7.21738 13.2551 7.21738H20.2116C20.4997 7.21738 20.7333 6.98379 20.7333 6.69564C20.7333 6.40749 20.4997 6.1739 20.2116 6.1739H13.2551ZM12.7333 8.78278C12.7333 8.49463 12.9669 8.26104 13.2551 8.26104H20.2116C20.4997 8.26104 20.7333 8.49463 20.7333 8.78278C20.7333 9.07093 20.4997 9.30452 20.2116 9.30452H13.2551C12.9669 9.30452 12.7333 9.07093 12.7333 8.78278ZM13.2551 10.3479C12.9669 10.3479 12.7333 10.5815 12.7333 10.8696C12.7333 11.1578 12.9669 11.3914 13.2551 11.3914H20.2116C20.4997 11.3914 20.7333 11.1578 20.7333 10.8696C20.7333 10.5815 20.4997 10.3479 20.2116 10.3479H13.2551ZM12.7333 12.9567C12.7333 12.6685 12.9669 12.4349 13.2551 12.4349H20.2116C20.4997 12.4349 20.7333 12.6685 20.7333 12.9567C20.7333 13.2448 20.4997 13.4784 20.2116 13.4784H13.2551C12.9669 13.4784 12.7333 13.2448 12.7333 12.9567ZM4.73334 9.30439H8.73334V18.7391C8.73334 19.2914 9.18105 19.7391 9.73334 19.7391H23.7333C24.2856 19.7391 24.7333 19.2914 24.7333 18.7391V9.30439H28.7333C29.2856 9.30439 29.7333 9.7521 29.7333 10.3044V25C29.7333 25.5523 29.2856 26 28.7333 26H4.73334C4.18105 26 3.73334 25.5523 3.73334 25V10.3044C3.73334 9.7521 4.18105 9.30439 4.73334 9.30439Z" fill="#D9D9D9"/>
</svg>
